<?xml version="1.0" encoding="UTF-8"?>
<svg width="64px" height="64px" viewBox="0 0 64 64" version="1.1" xmlns="http://www.w3.org/2000/svg" xmlns:xlink="http://www.w3.org/1999/xlink">
    <!-- Generator: Sketch 60 (88103) - https://sketch.com -->
    <title>Artboard</title>
    <desc>Created with Sketch.</desc>
    <defs>
        <linearGradient x1="50%" y1="100%" x2="50%" y2="0%" id="linearGradient-1">
            <stop stop-color="#808080" stop-opacity="0.25" offset="0%"></stop>
            <stop stop-color="#808080" stop-opacity="0.12" offset="53.514%"></stop>
            <stop stop-color="#808080" stop-opacity="0.1" offset="100%"></stop>
        </linearGradient>
        <linearGradient x1="50%" y1="99.9999776%" x2="50%" y2="0%" id="linearGradient-2">
            <stop stop-color="#808080" stop-opacity="0.25" offset="0%"></stop>
            <stop stop-color="#808080" stop-opacity="0.12" offset="53.514%"></stop>
            <stop stop-color="#808080" stop-opacity="0.1" offset="100%"></stop>
        </linearGradient>
    </defs>
    <g id="Artboard" stroke="none" stroke-width="1" fill="none" fill-rule="evenodd">
        <rect fill="#FFFFFF" opacity="0" x="0" y="0" width="64" height="64"></rect>
        <g id="undraw_Creation_process_ukbh" transform="translate(0.000000, 10.000000)" fill-rule="nonzero">
            <rect id="Rectangle" fill="url(#linearGradient-1)" x="0" y="0" width="64" height="27.1861514"></rect>
            <rect id="Rectangle" fill="#EEEEEE" x="0.715335495" y="0.191716036" width="62.6590479" height="26.6696613"></rect>
            <rect id="Rectangle" fill="url(#linearGradient-2)" x="39.1000223" y="10.0876735" width="3.32467604" height="3.21893333"></rect>
            <rect id="Rectangle" fill="#F5F5F5" x="39.1572721" y="10.143102" width="3.2101773" height="3.10807568"></rect>
            <rect id="Rectangle" fill="url(#linearGradient-2)" x="19.6901859" y="20.6450501" width="3.32467604" height="3.21893333"></rect>
            <rect id="Rectangle" fill="#F5F5F5" x="19.7474357" y="20.7004786" width="3.2101773" height="3.10807568"></rect>
            <rect id="Rectangle" fill="url(#linearGradient-2)" x="48.6857838" y="9.33090234" width="3.32467604" height="3.21893333"></rect>
            <rect id="Rectangle" fill="#F5F5F5" x="48.7430335" y="9.38633153" width="3.2101773" height="3.10807568"></rect>
            <rect id="Rectangle" fill="url(#linearGradient-2)" x="39.112013" y="18.5768043" width="3.32467604" height="3.21893333"></rect>
            <rect id="Rectangle" fill="#F5F5F5" x="39.1692627" y="18.6322328" width="3.2101773" height="3.10807568"></rect>
            <rect id="Rectangle" fill="url(#linearGradient-2)" x="17.9972591" y="2.38008288" width="3.32467604" height="3.21893333"></rect>
            <rect id="Rectangle" fill="#F5F5F5" x="18.0545088" y="2.43551135" width="3.2101773" height="3.10807568"></rect>
            <rect id="Rectangle" fill="url(#linearGradient-2)" x="50.3251279" y="1.65877117" width="3.32467604" height="3.21893333"></rect>
            <rect id="Rectangle" fill="#F5F5F5" x="50.3823777" y="1.71420036" width="3.2101773" height="3.10807568"></rect>
            <rect id="Rectangle" fill="url(#linearGradient-2)" x="58.1939805" y="13.265329" width="3.32467604" height="3.21893333"></rect>
            <rect id="Rectangle" fill="#F5F5F5" x="58.2512303" y="13.3207575" width="3.2101773" height="3.10807568"></rect>
            <rect id="Rectangle" fill="url(#linearGradient-2)" x="6.06283315" y="1.19975495" width="3.32467604" height="3.21893333"></rect>
            <rect id="Rectangle" fill="#F5F5F5" x="6.12008216" y="1.25518342" width="3.2101773" height="3.10807568"></rect>
            <rect id="Rectangle" fill="url(#linearGradient-2)" x="43.5705751" y="4.04752216" width="3.32467604" height="3.21893333"></rect>
            <rect id="Rectangle" fill="#7CFCFF" x="43.6278241" y="4.10295063" width="3.2101773" height="3.10807568"></rect>
            <rect id="Rectangle" fill="url(#linearGradient-2)" x="23.439427" y="10.8671942" width="3.32467604" height="3.21893333"></rect>
            <rect id="Rectangle" fill="#7CFCFF" x="23.4966768" y="10.9226234" width="3.2101773" height="3.10807568"></rect>
            <rect id="Rectangle" fill="url(#linearGradient-2)" x="34.652542" y="14.408178" width="3.32467604" height="3.21893333"></rect>
            <rect id="Rectangle" fill="#7CFCFF" x="34.7097917" y="14.4636065" width="3.2101773" height="3.10807568"></rect>
            <rect id="Rectangle" fill="url(#linearGradient-2)" x="38.5394515" y="2.3941636" width="3.32467604" height="3.21893333"></rect>
            <rect id="Rectangle" fill="#FFFFA5" x="38.5967005" y="2.44959207" width="3.2101773" height="3.10807568"></rect>
            <rect id="Rectangle" fill="url(#linearGradient-2)" x="44.3755171" y="16.4925247" width="3.32467604" height="3.21893333"></rect>
            <rect id="Rectangle" fill="#FFFFA5" x="44.4327661" y="16.5479532" width="3.2101773" height="3.10807568"></rect>
            <rect id="Rectangle" fill="url(#linearGradient-2)" x="24.3099431" y="2.3941636" width="3.32467604" height="3.21893333"></rect>
            <rect id="Rectangle" fill="#FFFFA5" x="24.3671928" y="2.44959207" width="3.2101773" height="3.10807568"></rect>
            <rect id="Rectangle" fill="url(#linearGradient-2)" x="28.7033859" y="19.9679344" width="3.32467604" height="3.21893333"></rect>
            <rect id="Rectangle" fill="#FFFFA5" x="28.7606357" y="20.0233629" width="3.2101773" height="3.10807568"></rect>
            <rect id="Rectangle" fill="url(#linearGradient-2)" x="33.9988274" y="6.80833369" width="3.32467604" height="3.21893333"></rect>
            <rect id="Rectangle" fill="#FF69B4" x="34.0560771" y="6.86376216" width="3.2101773" height="3.10807568"></rect>
            <rect id="Rectangle" fill="#000000" opacity="0.1" x="17.6053845" y="8.11980901" width="3.32467532" height="3.21893405"></rect>
            <rect id="Rectangle" fill="url(#linearGradient-2)" x="17.2119423" y="7.85751423" width="3.32467604" height="3.21893333"></rect>
            <rect id="Rectangle" fill="#FF69B4" x="17.2691921" y="7.9129427" width="3.2101773" height="3.10807568"></rect>
            <rect id="Rectangle" fill="url(#linearGradient-2)" x="58.1955488" y="4.77554667" width="3.32467604" height="3.21893333"></rect>
            <rect id="Rectangle" fill="#FF69B4" x="58.2527986" y="4.83097586" width="3.2101773" height="3.10807568"></rect>
            <rect id="Rectangle" fill="url(#linearGradient-2)" x="51.9660404" y="19.9886616" width="3.32467604" height="3.21893333"></rect>
            <rect id="Rectangle" fill="#FF69B4" x="52.0232901" y="20.0440901" width="3.2101773" height="3.10807568"></rect>
            <polygon id="Path" fill="#EDEEF9" points="8.15315315 13.3773694 7.7932973 14.4331532 11.4910991 14.3006126 10.0707027 13.4483604"></polygon>
            <polygon id="Path" fill="#EDEEF9" points="17.5514955 14.4426667 17.7409009 14.2059099 19.3507027 15.1528649 19.3507027 15.578955"></polygon>
            <path d="M13.5888288,12.4513463 L15.0302703,10.9378328 C15.0302703,10.9378328 16.6158559,8.55945441 17.769009,9.20810306 C18.9221622,9.85675171 16.1113514,11.3702652 16.1113514,11.3702652 L14.6699099,13.7486436 L13.5888288,12.4513463 Z" id="Path" fill="#A0616A"></path>
            <path d="M9.04828829,41.7846796 C9.04828829,41.7846796 7.96720721,43.8747697 8.76,44.0189139 C9.55279279,44.163058 13.4446847,44.3792742 13.5167568,44.163058 C13.5888288,43.9468418 14.1654054,43.2261211 13.732973,42.9378328 C13.3005405,42.6495445 11.5708108,42.4333283 11.5708108,42.4333283 L10.9942342,41.8567517 L9.04828829,41.7846796 Z" id="Path" fill="#2F2E41"></path>
            <path d="M8.47171171,21.3882832 C8.47171171,21.3882832 6.16540541,24.2711661 8.03927928,27.2261211 L8.47171171,32.1990941 C8.47171171,32.1990941 7.67891892,39.0459409 8.68792793,41.3522472 L8.83207207,42.14504 L11.3545946,42.14504 L10.7059459,36.0909859 C10.7059459,36.0909859 10.778018,35.3702652 10.9942342,35.2261211 C11.2104505,35.0819769 14.741982,27.2981932 14.741982,27.2981932 C14.741982,27.2981932 14.1654054,26.2171121 14.3816216,26.0008959 C14.5978378,25.7846796 14.1654054,21.4603553 13.9491892,21.3162112 C13.732973,21.172067 8.47171171,21.3882832 8.47171171,21.3882832 Z" id="Path" fill="#2F2E41"></path>
            <polygon id="Path" fill="#A0616A" points="12.5798198 41.136 12.8681081 42.7936577 10.0572973 42.6495135 10.4176577 40.8477117"></polygon>
            <circle id="Oval" fill="#A0616A" cx="12.075316" cy="9.56846414" r="2.16216216"></circle>
            <path d="M10.1293694,9.92882378 L9.91315315,12.5234184 L12.2194595,13.6044995 C12.2194595,13.6044995 11.8230631,11.190085 12.1113514,10.5414364 L10.1293694,9.92882378 Z" id="Path" fill="#A0616A"></path>
            <path d="M12.5077477,13.4603553 L12.2915315,12.5954905 L9.33657658,11.5144094 C9.33657658,11.5144094 9.04828829,11.5144094 9.12036036,12.0189139 C9.19243243,12.5234184 9.19243243,12.4513463 9.19243243,12.4513463 C9.19243243,12.4513463 8.18342342,12.8837787 8.11135135,13.6044995 C8.03927928,14.3252202 6.88612613,14.5414364 6.9581982,15.6225175 C7.03027027,16.7035986 7.39063063,17.2801751 7.39063063,17.2801751 C7.39063063,17.2801751 7.03027027,18.14504 7.60684685,18.6495445 C7.60684685,18.6495445 8.18342342,19.6585535 7.89513514,20.3792742 C7.60684685,21.099995 7.24648649,22.3252202 8.03927928,22.109004 C8.83207207,21.8927877 14.3095495,21.5324274 14.3095495,21.5324274 C14.3095495,21.5324274 15.1023423,18.5774724 14.2374775,17.4963914 C14.2374775,17.4963914 14.2374775,16.8477427 13.5888288,15.5504454 C12.9401802,14.2531481 12.5077477,13.4603553 12.5077477,13.4603553 Z" id="Path" fill="#575A89"></path>
            <path d="M8.68792793,21.6044995 C8.68792793,21.6044995 9.62486486,25.5684634 10.778018,26.0008959 C10.778018,26.0008959 10.9942342,28.8837787 12.2194595,28.7396346 C13.4446847,28.5954905 12.2194595,26.0008959 12.2194595,26.0008959 L10.8500901,21.0279229 L8.68792793,21.6044995 Z" id="Path" fill="#A0616A"></path>
            <path d="M12.3636036,13.6765715 C12.3636036,13.6765715 13.4446847,11.9468418 13.732973,12.2351301 C14.0212613,12.5234184 15.4627027,13.3882832 15.3906306,13.9648598 C15.3185586,14.5414364 14.6699099,14.5414364 14.6699099,14.5414364 L13.1563964,15.6945895 L12.3636036,13.6765715 Z" id="Path" fill="#575A89"></path>
            <path d="M13.8771171,26.5774724 L14.741982,27.1991661 L15.3185586,33.3522472 C15.3185586,33.3522472 13.2284685,41.7126076 12.6518919,41.7846796 C12.0753153,41.8567517 9.69693694,41.8567517 9.76900901,41.6405355 C9.84108108,41.4243193 10.2014414,40.5594544 10.2014414,40.3432382 C10.2014414,40.127022 10.953115,38.3978977 10.953115,38.3978977 L11.9311712,34.3612562 L11.714955,31.190085 L13.8771171,26.5774724 Z" id="Path" fill="#2F2E41"></path>
            <path d="M12.796036,42.2171121 C12.796036,42.2171121 9.76900901,41.2801751 9.62486486,41.4963914 C9.48072072,41.7126076 8.51925838,43.8917946 9.86485477,44.1355344 C11.2104512,44.3792742 16.0392793,44.8117067 16.0392793,44.163058 C16.0392793,43.5144094 15.8951351,43.0819769 15.4627027,43.0819769 C15.0302703,43.0819769 13.0843243,42.14504 12.9401802,41.9288238 C12.796036,41.7126076 12.796036,42.2171121 12.796036,42.2171121 Z" id="Path" fill="#2F2E41"></path>
            <path d="M10.0251344,9.71058378 C9.9836397,9.62795535 10.0000727,9.52800484 10.0658381,9.46301114 C10.1316035,9.39801744 10.231741,9.38276535 10.3138739,9.42523243 L10.3176807,9.4274227 C10.4460891,9.50543551 10.5153498,9.65271529 10.4935366,9.80137225 C10.7534407,9.54204468 10.5618955,9.02198054 10.842715,8.7854609 C10.9726955,8.67598342 11.1836879,8.65189982 11.2504641,8.49562739 C11.2893384,8.40464937 11.2629081,8.29681369 11.2971748,8.20400288 C11.3480577,8.06618955 11.5106119,8.00864072 11.6559121,7.98697297 C12.1128447,7.91883315 12.5749506,8.03478342 13.0223813,8.14983207 C13.1869038,8.19213838 13.3598991,8.23914523 13.4797348,8.35954739 C13.6059539,8.4863618 13.6498724,8.67062414 13.7272677,8.83194018 C13.8046631,8.99325622 14.3122724,8.97867892 14.4897319,8.95585081 C14.5514256,8.78060973 14.0957946,8.76739748 14.0586011,8.58537441 C13.9569405,8.0878609 14.3109629,7.55881369 14.1372879,7.08164036 C14.0326393,6.79411027 13.7592562,6.60377586 13.4840209,6.47009297 C12.7194165,6.10253107 11.8465861,6.02804983 11.0307596,6.26074883 C10.9477171,6.27907953 10.8701201,6.31659935 10.8041816,6.37030414 C10.6994371,6.46808937 10.6800187,6.62509117 10.6102609,6.75026018 C10.4513189,7.03545297 10.0743647,7.10323387 9.82018523,7.30814919 C9.43523171,7.61849153 9.39183207,8.17885766 9.37936793,8.67317189 C9.37309045,8.92210883 9.3686609,9.1807755 9.47062342,9.40796396 C9.57258595,9.63515243 9.81420901,9.82026883 10.0586378,9.77268324 C10.0470631,9.75388613 10.035964,9.73287279 10.0251344,9.71058378 Z" id="Path" fill="#2F2E41"></path>
            <path d="M10.4011733,14.3788908 C9.8273946,13.9806785 9.05716794,14.0198204 8.52671423,14.4741485 C8.02999856,14.8962501 7.49565117,15.5010162 7.5347755,16.127022 C7.60684757,17.2801751 8.03928,22.0369319 8.61585658,22.109004 C9.19243315,22.181076 11.2825232,21.6044995 11.2825232,21.2441391 C11.2825232,20.8837787 10.7780187,20.4513463 10.7780187,20.4513463 L11.3905773,16.775995 C11.5481373,15.8671065 11.1773744,14.9473902 10.4335106,14.4018905 C10.4228089,14.3941869 10.4120298,14.3865204 10.4011733,14.3788908 Z" id="Path" fill="#575A89"></path>
        </g>
    </g>
</svg>