<?xml version="1.0" encoding="UTF-8"?>
<svg width="64px" height="64px" viewBox="0 0 64 64" version="1.1" xmlns="http://www.w3.org/2000/svg" xmlns:xlink="http://www.w3.org/1999/xlink">
    <!-- Generator: Sketch 60 (88103) - https://sketch.com -->
    <title>Artboard</title>
    <desc>Created with Sketch.</desc>
    <defs>
        <linearGradient x1="50.004199%" y1="100.008187%" x2="50.004199%" y2="0.00765306884%" id="linearGradient-1">
            <stop stop-color="#808080" stop-opacity="0.25" offset="0%"></stop>
            <stop stop-color="#808080" stop-opacity="0.12" offset="54%"></stop>
            <stop stop-color="#808080" stop-opacity="0.1" offset="100%"></stop>
        </linearGradient>
    </defs>
    <g id="Artboard" stroke="none" stroke-width="1" fill="none" fill-rule="evenodd">
        <rect fill="#FFFFFF" opacity="0" x="0" y="0" width="64" height="64"></rect>
        <g id="process_proto" transform="translate(0.000000, 7.000000)">
            <ellipse id="Oval" fill="#2170F2" fill-rule="nonzero" opacity="0.1" cx="20.0132374" cy="47.3484892" rx="13.6690647" ry="2.07194245"></ellipse>
            <path d="M19.7922302,2.23539568 C21.9602878,0.324604317 25.3640288,-0.0667625899 28.4627338,0.0874820144 C38.1939568,0.566330935 46.9772662,5.20920863 54.5772662,10.4621583 C57.3283453,12.3643165 60.0368345,14.4132374 61.8221583,17.032518 C65.4572662,22.3631655 64.378705,29.7484892 59.3243165,34.1398561 C57.6046043,35.636259 55.52,36.7798561 53.3801439,37.7951079 C49.5746763,39.6005755 45.468777,41.0497842 41.1499281,41.462446 C38.0702158,41.7565468 34.952518,41.5171223 31.8906475,41.1067626 C23.3358273,39.9602878 14.938705,37.4233094 7.90100719,33.0854676 C4.81438849,31.185036 1.90503597,28.8172662 0.632517986,25.738705 C-0.64,22.6601439 0.172086331,18.7591367 3.32661871,16.937554 C4.63021583,16.1835971 6.18877698,15.8440288 7.71453237,15.5234532 C9.95913669,15.0532374 12.2428777,14.5893525 14.2699281,13.6333813 C16.3631655,12.6451799 18.8420144,10.734964 18.4276259,8.54906475 C17.9827338,6.20258993 17.6247482,4.14273381 19.7922302,2.23539568 Z" id="Path" fill="#2170F2" fill-rule="nonzero" opacity="0.1"></path>
            <path d="M53.054964,5.14877698 C53.4440288,7.71338129 52.3614388,10.0046043 52.3614388,10.0046043 C52.3614388,10.0046043 50.6480576,8.1381295 50.2578417,5.57352518 C50.0397122,4.13467626 50.2843165,2.78330935 50.5410072,1.87280576 C50.6071599,1.63122181 50.8095245,1.45135375 51.0572006,1.41399688 C51.3048767,1.37664 51.5512907,1.48881897 51.6857554,1.70014388 C52.2020144,2.49208633 52.8368345,3.7105036 53.054964,5.14877698 Z" id="Path" fill="#2170F2" fill-rule="nonzero"></path>
            <path d="M60.2894964,9.23625899 C60.6749774,9.23446136 61.0590419,9.28302568 61.4319424,9.38071942 C62.0598561,9.5418705 62.0696403,10.4310791 61.4451799,10.6060432 C61.0744694,10.7116445 60.6915864,10.7685256 60.3061871,10.7752518 C58.8943885,10.7907914 57.7415827,10.0333813 57.7415827,10.0333813 C57.7415827,10.0333813 58.8776978,9.25179856 60.2894964,9.23625899 Z" id="Path" fill="#2170F2" fill-rule="nonzero"></path>
            <path d="M56.3194245,5.33755396 C55.0054676,6.78158273 54.727482,8.66877698 54.727482,8.66877698 C54.727482,8.66877698 56.5795683,8.21410072 57.8929496,6.7694964 C58.5018705,6.10014388 58.8886331,5.33582734 59.1280576,4.70848921 C59.2208508,4.46546553 59.1555396,4.19041404 58.9633994,4.01504801 C58.7712593,3.83968199 58.4914018,3.7996986 58.2578417,3.9142446 C57.6523741,4.21179856 56.9283453,4.66820144 56.3194245,5.33755396 Z" id="Path" fill="#2170F2" fill-rule="nonzero"></path>
            <rect id="Rectangle" fill="#464353" fill-rule="nonzero" x="29.4941007" y="5.06532374" width="29.5827338" height="35.6241727" rx="14.7913669"></rect>
            <rect id="Rectangle" fill="#2170F2" fill-rule="nonzero" opacity="0.1" x="32.0460432" y="8.65899281" width="24.4788489" height="28.4368345"></rect>
            <circle id="Oval" fill="#FFFFFF" fill-rule="nonzero" cx="44.2854676" cy="38.9709353" r="1.04172662"></circle>
            <path d="M44.2854676,7.64086331 C44.0136958,7.64086331 43.7933813,7.42054875 43.7933813,7.14877698 C43.7933813,6.8770052 44.0136958,6.65669065 44.2854676,6.65669065 C44.5572394,6.65669065 44.777554,6.8770052 44.777554,7.14877698 C44.7769211,7.42028617 44.5569768,7.64023042 44.2854676,7.64086331 Z" id="Path" fill="#FFFFFF" fill-rule="nonzero"></path>
            <path d="M44.2854676,6.68546763 C44.5413463,6.68546763 44.748777,6.89289829 44.748777,7.14877698 C44.748777,7.40465567 44.5413463,7.61208633 44.2854676,7.61208633 C44.0295889,7.61208633 43.8221583,7.40465567 43.8221583,7.14877698 C43.8224754,6.89302975 44.0297204,6.68578473 44.2854676,6.68546763 M44.2854676,6.62790566 C44.0745401,6.62674831 43.883733,6.75291104 43.8022058,6.94744916 C43.7206786,7.14198728 43.7645283,7.36649023 43.9132651,7.51605336 C44.0620019,7.66561649 44.2862585,7.71070933 44.4812453,7.63026111 C44.6762321,7.54981289 44.80345,7.3597077 44.8034612,7.14877698 C44.8042192,7.01090073 44.7499842,6.87840857 44.65276,6.78064414 C44.5555357,6.68287972 44.423346,6.62790566 44.2854676,6.62790566 L44.2854676,6.62790566 Z" id="Shape" fill="#FFFFFF" fill-rule="nonzero"></path>
            <rect id="Rectangle" stroke="#FFFFFF" fill="#FFFFFF" fill-rule="nonzero" x="33.1833094" y="17.4682014" width="5.07683453" height="6.9018705" rx="2.53841727"></rect>
            <rect id="Rectangle" fill="#2170F2" fill-rule="nonzero" opacity="0.5" x="33.6592806" y="19.207482" width="4.12489209" height="2.18992806" rx="1.09496403"></rect>
            <rect id="Rectangle" fill="#2170F2" fill-rule="nonzero" x="34.5202878" y="22.2906475" width="2.4028777" height="1" rx="0.5"></rect>
            <rect id="Rectangle" stroke="#FFFFFF" fill="#FFFFFF" fill-rule="nonzero" x="41.7663309" y="17.4682014" width="5.07683453" height="6.9018705" rx="2.53841727"></rect>
            <rect id="Rectangle" fill="#2170F2" fill-rule="nonzero" opacity="0.5" x="43.1015827" y="18.5461871" width="2.43280576" height="1.29151079" rx="0.645755396"></rect>
            <rect id="Rectangle" fill="#2170F2" fill-rule="nonzero" x="42.7458993" y="21.0480576" width="3.10561151" height="1" rx="0.5"></rect>
            <rect id="Rectangle" fill="#2170F2" fill-rule="nonzero" x="42.7458993" y="21.6823022" width="3.10561151" height="1" rx="0.5"></rect>
            <rect id="Rectangle" stroke="#FFFFFF" fill="#FFFFFF" fill-rule="nonzero" x="50.3107914" y="12.5651799" width="5.07683453" height="6.9018705" rx="2.53841727"></rect>
            <rect id="Rectangle" fill="#2170F2" fill-rule="nonzero" opacity="0.5" x="51.1965468" y="13.636259" width="3.30532374" height="1.54244604" rx="0.771223022"></rect>
            <rect id="Rectangle" fill="#2170F2" fill-rule="nonzero" opacity="0.5" x="51.1965468" y="15.8779856" width="3.30532374" height="1.54244604" rx="0.771223022"></rect>
            <rect id="Rectangle" fill="#2170F2" fill-rule="nonzero" x="50.9323741" y="18.6635971" width="1.08431655" height="1" rx="0.5"></rect>
            <rect id="Rectangle" fill="#2170F2" fill-rule="nonzero" x="52.3073381" y="18.6635971" width="1.08431655" height="1" rx="0.5"></rect>
            <rect id="Rectangle" fill="#2170F2" fill-rule="nonzero" x="53.6823022" y="18.6635971" width="1.08431655" height="1" rx="0.5"></rect>
            <rect id="Rectangle" stroke="#FFFFFF" fill="#FFFFFF" fill-rule="nonzero" x="50.298705" y="22.371223" width="5.07683453" height="6.9018705" rx="2.53841727"></rect>
            <rect id="Rectangle" fill="#2170F2" fill-rule="nonzero" opacity="0.5" x="50.6906475" y="23.1781295" width="1.5171223" height="1.54244604" rx="0.758561151"></rect>
            <rect id="Rectangle" fill="#2170F2" fill-rule="nonzero" x="51.2846043" y="25.6598561" width="3.10561151" height="1" rx="0.5"></rect>
            <rect id="Rectangle" fill="#2170F2" fill-rule="nonzero" x="51.2846043" y="26.3476259" width="3.10561151" height="1" rx="0.5"></rect>
            <rect id="Rectangle" fill="#2170F2" fill-rule="nonzero" x="51.2846043" y="27.0353957" width="3.10561151" height="1" rx="0.5"></rect>
            <path d="M41.1810072,20.7545324 L41.1033094,20.7919424 L40.4736691,21.0946763 L40.4161151,21.1217266 C40.408361,21.1253417 40.3994596,21.1256003 40.3915086,21.1224417 C40.3835576,21.1192831 40.3772603,21.1129866 40.3741007,21.105036 C40.3734457,21.101227 40.3734457,21.0973342 40.3741007,21.0935252 L40.3741007,20.9145324 C40.3741007,20.8976857 40.3604438,20.8840288 40.3435971,20.8840288 L38.8132374,20.8840288 C38.7962951,20.8840317 38.782472,20.8704645 38.7821583,20.8535252 L38.7821583,20.6008633 C38.782472,20.583924 38.7962951,20.5703568 38.8132374,20.5703597 L40.3453237,20.5703597 C40.3622631,20.570046 40.3758302,20.5562228 40.3758273,20.5392806 L40.3758273,20.356259 C40.3752335,20.352445 40.3752335,20.3485622 40.3758273,20.3447482 C40.3790995,20.3369005 40.385444,20.3307361 40.3933827,20.3276911 C40.4013213,20.3246462 40.4101608,20.3249866 40.4178417,20.3286331 L40.4753957,20.3556835 L41.1033094,20.661295 L41.1810072,20.6992806 C41.1917282,20.7042998 41.1985771,20.7150687 41.1985771,20.7269065 C41.1985771,20.7387443 41.1917282,20.7495131 41.1810072,20.7545324 Z" id="Path" stroke="#FFFFFF" fill="#FFFFFF" fill-rule="nonzero"></path>
            <path d="M49.7007194,19.2023022 L49.6500719,19.2719424 L49.2379856,19.8336691 L49.2017266,19.883741 C49.1965085,19.8904504 49.1888114,19.8947793 49.1803678,19.8957536 C49.1719242,19.8967279 49.1634435,19.8942656 49.1568345,19.8889209 C49.1539113,19.8863703 49.1515581,19.8832327 49.1499281,19.8797122 L49.0658993,19.7220144 C49.0577647,19.7069831 49.0391668,19.7011235 49.0238849,19.708777 L47.6713669,20.428777 C47.6642,20.4326302 47.6557905,20.4334602 47.6480086,20.4310824 C47.6402267,20.4287046 47.6337173,20.4233161 47.6299281,20.4161151 L47.5113669,20.1922302 C47.5075137,20.1850633 47.5066837,20.1766538 47.5090615,20.1688719 C47.5114393,20.16109 47.5168278,20.1545807 47.5240288,20.1507914 L48.8765468,19.4319424 C48.8837477,19.4281532 48.8891362,19.4216438 48.891514,19.4138619 C48.8938918,19.40608 48.8930619,19.3976705 48.8892086,19.3905036 L48.8034532,19.228777 C48.801267,19.2255434 48.8000673,19.2217444 48.8,19.2178417 C48.7988436,19.2093325 48.8013981,19.2007365 48.8070138,19.1942399 C48.8126296,19.1877432 48.8207655,19.1839718 48.8293525,19.1838849 L48.8909353,19.1838849 L49.5884892,19.1585612 L49.6748201,19.1556835 C49.685898,19.1556835 49.6961052,19.1616894 49.7014851,19.1713732 C49.706865,19.181057 49.7065719,19.1928964 49.7007194,19.2023022 Z" id="Path" stroke="#FFFFFF" fill="#FFFFFF" fill-rule="nonzero"></path>
            <path d="M49.6961151,22.152518 L49.6103597,22.152518 L48.9133813,22.152518 L48.8517986,22.152518 C48.8432934,22.1525454 48.8351643,22.1490144 48.8293727,22.1427857 C48.8235811,22.1365571 48.820653,22.1281932 48.821295,22.1197122 C48.8214371,22.1158997 48.8224197,22.1121656 48.8241727,22.108777 L48.901295,21.9470504 C48.9048417,21.939729 48.9053169,21.9312942 48.902615,21.9236207 C48.8999131,21.9159473 48.8942579,21.9096711 48.8869065,21.9061871 L47.5056115,21.2431655 C47.4902225,21.2356714 47.4837898,21.217145 47.491223,21.2017266 L47.6005755,20.9743885 C47.6039354,20.9669247 47.6102056,20.9611626 47.6179262,20.9584441 C47.6256467,20.9557256 47.6341438,20.9562879 47.6414388,20.96 L49.0227338,21.6235971 C49.0381698,21.6307002 49.0564603,21.6243494 49.0641727,21.6092086 L49.1435971,21.4440288 C49.1479282,21.434366 49.1570429,21.4277111 49.1675657,21.4265288 C49.1780885,21.4253464 49.1884528,21.4298127 49.1948201,21.4382734 L49.2333813,21.4860432 L49.6667626,22.0339568 L49.7202878,22.1018705 C49.7283708,22.1110399 49.7301996,22.124149 49.7249345,22.1351805 C49.7196695,22.146212 49.7083276,22.1530351 49.6961151,22.152518 Z" id="Path" stroke="#FFFFFF" fill="#FFFFFF" fill-rule="nonzero"></path>
            <polygon id="Path" fill="#504F60" fill-rule="nonzero" points="24.4713669 34.9726619 24.4667626 35.141295 24.1732374 45.505036 23.6794245 45.505036 23.9217266 35.141295 23.9263309 34.9467626"></polygon>
            <polygon id="Path" fill="#000000" fill-rule="nonzero" opacity="0.1" points="24.4713669 34.9726619 24.4667626 35.141295 24.1732374 45.505036 23.6794245 45.505036 23.9217266 35.141295 23.9263309 34.9467626"></polygon>
            <polygon id="Path" fill="#504F60" fill-rule="nonzero" points="27.3289209 43.7519424 26.9594245 43.7507914 21.4658993 43.7392806 21.1735252 43.738705 21.3289209 43.2581295 27.2897842 43.2581295"></polygon>
            <polygon id="Path" fill="#000000" fill-rule="nonzero" opacity="0.1" points="24.4713669 34.9726619 24.4667626 35.141295 23.9217266 35.141295 23.9263309 34.9467626"></polygon>
            <rect id="Rectangle" fill="#504F60" fill-rule="nonzero" x="23.7640288" y="34.7194245" width="1" height="1"></rect>
            <polygon id="Path" fill="#000000" fill-rule="nonzero" opacity="0.1" points="21.5148201 43.2581295 21.4658993 43.7392806 21.1735252 43.738705 21.3289209 43.2581295"></polygon>
            <polygon id="Path" fill="#504F60" fill-rule="nonzero" points="22.3033094 34.7130935 22.2877698 34.8621583 21.0693525 46.8811511 20.5110791 46.8552518 21.7951079 34.8621583 21.8094964 34.7257554"></polygon>
            <polygon id="Path" fill="#000000" fill-rule="nonzero" opacity="0.1" points="27.3289209 43.7519424 26.9594245 43.7507914 26.9093525 43.2581295 27.2897842 43.2581295"></polygon>
            <polygon id="Path" fill="#504F60" fill-rule="nonzero" points="27.9136691 46.8552518 27.3548201 46.8811511 26.1364029 34.8621583 26.1214388 34.7130935 26.6146763 34.7257554 26.6290647 34.8621583"></polygon>
            <rect id="Rectangle" fill="#FFFFFF" fill-rule="nonzero" x="17.978705" y="22.8621583" width="12.3113669" height="11.8048921"></rect>
            <rect id="Rectangle" fill="#FFFFFF" fill-rule="nonzero" x="15.2782734" y="22.8621583" width="17.7266187" height="11.8048921" rx="4.13"></rect>
            <path d="M24.3741007,18.9145324 L24.3741007,21.7651799 L23.8941007,21.7651799 L23.8941007,18.9145324 C23.8941007,18.781984 24.0015524,18.6745324 24.1341007,18.6745324 C24.2666491,18.6745324 24.3741007,18.781984 24.3741007,18.9145324 Z" id="Path" fill="#504F60" fill-rule="nonzero"></path>
            <rect id="Rectangle" fill="#000000" fill-rule="nonzero" opacity="0.1" x="23.8941007" y="21.5056115" width="1" height="1"></rect>
            <path d="M24.5628777,21.7001439 L24.5628777,22.6417266 L23.7058993,22.6417266 L23.7058993,21.7001439 C23.7058993,21.6365715 23.7574348,21.585036 23.8210072,21.585036 L24.4443165,21.585036 C24.4754389,21.5841019 24.5056121,21.5958157 24.5279518,21.6175046 C24.5502914,21.6391936 24.5628917,21.6690075 24.5628777,21.7001439 L24.5628777,21.7001439 Z" id="Path" fill="#504F60" fill-rule="nonzero"></path>
            <circle id="Oval" fill="#000000" fill-rule="nonzero" opacity="0.1" cx="24.1341007" cy="22.1807194" r="1"></circle>
            <circle id="Oval" fill="#3F3D56" fill-rule="nonzero" cx="24.1341007" cy="22.1415827" r="1"></circle>
            <rect id="Rectangle" fill="#000000" fill-rule="nonzero" opacity="0.1" x="23.7058993" y="22.5248921" width="1" height="1"></rect>
            <rect id="Rectangle" fill="#000000" fill-rule="nonzero" opacity="0.1" x="23.3548201" y="22.6808633" width="1.55856115" height="1"></rect>
            <rect id="Rectangle" fill="#504F60" fill-rule="nonzero" x="23.3548201" y="22.6025899" width="1.55856115" height="1"></rect>
            <path d="M21.0434532,34.3597122 L27.4653237,34.3597122 C27.6560408,34.3597122 27.8106475,34.5143189 27.8106475,34.705036 L27.8106475,34.705036 L20.6992806,34.705036 L20.6992806,34.705036 C20.6992806,34.5147676 20.8531859,34.3603465 21.0434532,34.3597122 Z" id="Path" fill="#000000" fill-rule="nonzero" opacity="0.1"></path>
            <polygon id="Path" fill="#000000" fill-rule="nonzero" opacity="0.1" points="21.8094964 34.7257554 22.3033094 34.7130935 22.2877698 34.8621583 21.7951079 34.8621583"></polygon>
            <rect id="Rectangle" fill="#000000" fill-rule="nonzero" opacity="0.1" x="23.7640288" y="34.7194245" width="1" height="1"></rect>
            <polygon id="Path" fill="#000000" fill-rule="nonzero" opacity="0.1" points="26.6290647 34.8621583 26.1364029 34.8621583 26.1214388 34.7130935 26.6146763 34.7257554"></polygon>
            <path d="M21.0434532,34.4402878 L27.4653237,34.4402878 C27.6560408,34.4402878 27.8106475,34.5948945 27.8106475,34.7856115 L27.8106475,34.7856115 L20.6992806,34.7856115 L20.6992806,34.7856115 C20.6992806,34.5948945 20.8538873,34.4402878 21.0446043,34.4402878 L21.0434532,34.4402878 Z" id="Path" fill="#504F60" fill-rule="nonzero"></path>
            <path d="M29.8601439,24.2486331 C29.8865707,24.2445139 29.9134062,24.2529606 29.9327093,24.2714736 C29.9520125,24.2899866 29.9615728,24.3164458 29.9585612,24.3430216 C29.8751079,25.148777 29.9286331,25.9741007 30.0189928,26.7781295 C30.0610072,27.1458993 30.1179856,27.534964 30.2808633,27.8077698 C30.3022542,27.8418191 30.2974931,27.8860968 30.2693525,27.9148201 C30.2238767,27.9502056 30.1667847,27.9672511 30.1093525,27.9625899 L27.5407194,27.9769811 C27.5143128,27.9771858 27.4892833,27.9652155 27.472869,27.9445291 C27.4564548,27.9238427 27.4504867,27.8967475 27.4566906,27.8710791 C27.6633094,26.9905036 27.6189928,26.0293525 27.5361151,25.1159712 C27.4952518,24.6664748 27.4716547,24.4253237 27.8071942,24.3936691 C28.152518,24.3625899 28.4978417,24.3482014 28.8431655,24.3194245 C28.9260432,24.312518 29.5902158,24.2929496 29.8601439,24.2486331 Z" id="Path" stroke="#33313F" stroke-width="3" fill="#FFFFFF" fill-rule="nonzero"></path>
            <path d="M27.8946763,29.5257554 C27.8682495,29.5216362 27.841414,29.5300829 27.8221108,29.5485959 C27.8028076,29.5671089 27.7932474,29.5935681 27.796259,29.6201439 C27.8797122,30.4258993 27.8261871,31.251223 27.7352518,32.0552518 C27.6938129,32.4230216 27.6368345,32.8120863 27.4739568,33.0854676 C27.4524365,33.1192873 27.4572166,33.1635035 27.4854676,33.1919424 C27.5309434,33.2273279 27.5880355,33.2443734 27.6454676,33.2397122 L30.2141007,33.2546763 C30.2404764,33.2544804 30.2653358,33.2423166 30.2816761,33.2216113 C30.2980165,33.2009061 30.3040693,33.1739003 30.2981295,33.1482014 C30.0915108,32.2676259 30.1358273,31.3064748 30.218705,30.3930935 C30.2595683,29.9435971 30.2831655,29.702446 29.9476259,29.6707914 C29.6120863,29.6391367 29.2569784,29.6253237 28.9116547,29.5965468 C28.828777,29.5896403 28.1646043,29.5700719 27.8946763,29.5257554 Z" id="Path" stroke="#33313F" stroke-width="3" fill="#FFFFFF" fill-rule="nonzero"></path>
            <path d="M28.6492086,31.0083453 C28.947678,30.9944258 29.2467077,30.9980771 29.5447482,31.0192806 C29.5845793,31.0231163 29.6162761,31.0543329 29.6207194,31.0941007 L29.6489209,31.3294964 C29.651819,31.3401805 29.649232,31.3516063 29.6420144,31.36 C29.6356816,31.364546 29.627894,31.3665954 29.6201439,31.3657554 C29.4946763,31.3692086 29.3692086,31.3548201 29.2443165,31.3657554 C29.1666187,31.3720863 29.0894964,31.3870504 29.0141007,31.3956835 C28.8866475,31.4069056 28.7585661,31.4092133 28.6307914,31.4025899 C28.4507608,31.4056942 28.2711804,31.3836099 28.0972662,31.3369784 C28.0972662,31.3369784 28.1076259,31.1418705 28.1076259,31.1234532 C28.1076259,31.032518 28.1047482,31.0244604 28.1985612,31.0221583 L28.6492086,31.0083453 Z" id="Path" stroke="#33313F" stroke-width="2" stroke-linecap="round"></path>
            <path d="M28.6492086,32.0696403 C28.9476844,32.0836561 29.2467313,32.0798124 29.5447482,32.0581295 C29.5845793,32.0542938 29.6162761,32.0230772 29.6207194,31.9833094 L29.6489209,31.7484892 C29.6518165,31.7376229 29.6492397,31.7260273 29.6420144,31.7174101 C29.6356816,31.712864 29.627894,31.7108147 29.6201439,31.7116547 C29.4946763,31.7082014 29.3692086,31.7231655 29.2443165,31.7116547 C29.1666187,31.7058993 29.0894964,31.6909353 29.0141007,31.6823022 C28.8866629,31.6707921 28.7585611,31.668484 28.6307914,31.6753957 C28.4507608,31.6722914 28.2711804,31.6943757 28.0972662,31.7410072 C28.0972662,31.7410072 28.1076259,31.9355396 28.1076259,31.9545324 C28.1076259,32.0454676 28.1047482,32.0529496 28.1985612,32.0558273 L28.6492086,32.0696403 Z" id="Path" stroke="#33313F" stroke-width="2" stroke-linecap="round"></path>
            <path d="M28.6492086,32.4851799 C28.9476844,32.471164 29.2467313,32.4750078 29.5447482,32.4966906 C29.5845793,32.5005264 29.6162761,32.5317429 29.6207194,32.5715108 L29.6489209,32.8063309 C29.6518165,32.8171972 29.6492397,32.8287929 29.6420144,32.8374101 C29.6356816,32.8419561 29.627894,32.8440055 29.6201439,32.8431655 C29.4946763,32.8466187 29.3692086,32.8316547 29.2443165,32.8431655 C29.1666187,32.8489209 29.0894964,32.8644604 29.0141007,32.8730935 C28.8866341,32.8841238 28.7585527,32.8862392 28.6307914,32.8794245 C28.4507874,32.8827239 28.2712064,32.8608332 28.0972662,32.8143885 C28.0972662,32.8143885 28.1076259,32.6192806 28.1076259,32.6002878 C28.1076259,32.5093525 28.1047482,32.5018705 28.1985612,32.4995683 L28.6492086,32.4851799 Z" id="Path" stroke="#33313F" stroke-width="2" stroke-linecap="round"></path>
            <path d="M29.0273381,27.5591367 C29.0536629,27.6224003 29.0624123,27.6915996 29.0526619,27.7594245 C29.0527592,27.7648746 29.0513661,27.7702477 29.0486331,27.774964 C29.0421957,27.7811901 29.0333855,27.7843366 29.0244604,27.7835971 L28.4776978,27.8048921 C28.4776978,27.8048921 28.5082014,27.643741 28.5122302,27.6322302 C28.531223,27.5666187 28.5789928,27.5838849 28.6405755,27.5804317 L29.0273381,27.5591367 Z" id="Path" stroke="#33313F" stroke-width="2" fill="#FFFFFF" fill-rule="nonzero" stroke-linecap="round"></path>
            <path d="M29.8532374,27.5591367 C29.8793674,27.6224539 29.8879176,27.6916513 29.8779856,27.7594245 C29.8782879,27.7648235 29.8770929,27.7702011 29.8745324,27.774964 C29.8680177,27.7810645 29.859265,27.7841905 29.8503597,27.7835971 L29.3030216,27.8048921 C29.3030216,27.8048921 29.3341007,27.643741 29.3381295,27.6322302 C29.3565468,27.5666187 29.4043165,27.5838849 29.4664748,27.5804317 L29.8532374,27.5591367 Z" id="Path" stroke="#33313F" stroke-width="2" fill="#FFFFFF" fill-rule="nonzero" stroke-linecap="round"></path>
            <path d="M29.5234532,24.8115108 L29.5971223,25.4446043 C29.6020898,25.490811 29.588221,25.5370693 29.5586512,25.5729213 C29.5290814,25.6087733 29.4863077,25.6311916 29.44,25.6351079 C28.9728708,25.6720417 28.5034387,25.6689609 28.0368345,25.6258993 C27.9510505,25.6176448 27.8844888,25.5473989 27.8808633,25.461295 C27.8721133,25.3484418 27.8555751,25.2363283 27.8313669,25.1257554 C27.8123741,25.0106475 27.7916547,24.8995683 27.927482,24.8656115 C28.0633094,24.8316547 28.2492086,24.8558273 28.3976978,24.8529496 C28.5757314,24.8494964 28.7531894,24.8445084 28.9300719,24.8379856 C28.9795683,24.8379856 29.5234532,24.8086331 29.5234532,24.8115108 Z" id="Path" stroke="#33313F" stroke-width="3"></path>
            <path d="M29.5234532,27.098705 L29.5959712,26.4656115 C29.6009387,26.4194048 29.5870699,26.3731465 29.5575001,26.3372945 C29.5279304,26.3014425 29.4851566,26.2790242 29.4388489,26.2751079 C28.9717256,26.2382703 28.5023181,26.2411583 28.0356835,26.283741 C27.9496906,26.2920274 27.8830575,26.3625945 27.8797122,26.4489209 C27.8709622,26.561774 27.854424,26.6738876 27.8302158,26.7844604 C27.811223,26.8995683 27.7905036,27.0106475 27.9263309,27.0446043 C28.0621583,27.0785612 28.2480576,27.0543885 28.3965468,27.0572662 C28.5743885,27.0607194 28.7516547,27.0653237 28.9289209,27.0722302 C28.9795683,27.0739568 29.5234532,27.1033094 29.5234532,27.098705 Z" id="Path" stroke="#33313F" stroke-width="3"></path>
            <path d="M28.7838849,29.9516547 C28.7647002,30.1623022 28.7526139,30.3733333 28.7476259,30.5847482 C28.5363706,30.5829669 28.3258959,30.558852 28.1197122,30.5128058 C28.0868345,30.5112539 28.056338,30.4952011 28.0364475,30.4689767 C28.0165569,30.4427523 28.0093208,30.4090571 28.0166906,30.3769784 C28.0126619,30.2457554 27.9435971,29.9528058 28.1283453,29.9343885 C28.1835971,29.9286331 28.7833094,29.9620144 28.7838849,29.9516547 Z" id="Path" stroke="#33313F" stroke-width="2" stroke-linecap="round"></path>
            <path d="M18.6215827,27.076259 C18.6764069,27.0703121 18.7310006,27.0893233 18.7702725,27.1280374 C18.8095444,27.1667514 18.8293346,27.2210676 18.8241727,27.2759712 C18.7579856,28.0420144 18.8103597,28.8264748 18.8966906,29.5902158 C18.9352518,29.9297842 18.9864748,30.2871942 19.1223022,30.5548201 C19.1463454,30.601484 19.1443906,30.6572936 19.1171414,30.7021608 C19.0898921,30.7470281 19.0412704,30.7744954 18.988777,30.7746763 L18.988777,30.7746763 L16.4402878,30.7896425 C16.4094656,30.789842 16.3802284,30.7759991 16.3608509,30.7520291 C16.3414733,30.7280592 16.3340638,30.6965705 16.3407194,30.6664748 C16.5427338,29.7905036 16.4984173,28.8339568 16.4161151,27.9280576 C16.3746763,27.4785612 16.3516547,27.2374101 16.6866187,27.2057554 C17.0319424,27.1752518 17.3772662,27.1608633 17.7197122,27.1315108 C17.7928058,27.1257554 18.3153957,27.1096403 18.6215827,27.076259 Z" id="Path" stroke="#33313F" stroke-width="3" fill="#FFFFFF" fill-rule="nonzero" stroke-linecap="round"></path>
            <path d="M22.1669065,27.0618705 C22.1386388,27.0575321 22.1099683,27.0666585 22.0894099,27.0865391 C22.0688515,27.1064197 22.0587696,27.1347683 22.0621583,27.1631655 C22.1444604,27.9648921 22.0909353,28.7890647 22.0005755,29.5902158 C21.9591367,29.9579856 21.9021583,30.3453237 21.7398561,30.618705 C21.7162857,30.6587596 21.726711,30.7101413 21.7640288,30.7378417 C21.8075691,30.7654273 21.8588025,30.7783365 21.9102158,30.7746763 L24.4719424,30.7896403 C24.5004318,30.7896403 24.5273235,30.7764818 24.5447753,30.7539634 C24.5622271,30.7314451 24.5682734,30.702117 24.5611511,30.6745324 C24.3568345,29.7956835 24.4005755,28.8356835 24.4834532,27.9263309 C24.5243165,27.4768345 24.5479137,27.2356835 24.2129496,27.2040288 C23.8676259,27.1735252 23.5223022,27.1591367 23.1769784,27.1297842 C23.0923741,27.1246043 22.4420144,27.1056115 22.1669065,27.0618705 Z" id="Path" stroke="#33313F" stroke-width="3" fill="#FFFFFF" fill-rule="nonzero"></path>
            <line x1="17.0958273" y1="27.585036" x2="18.3988489" y2="29.3231655" id="Path" stroke="#33313F" stroke-width="2" fill="#FFFFFF" fill-rule="nonzero" stroke-linecap="round"></line>
            <line x1="18.3988489" y1="27.454964" x2="17.1389928" y2="29.4100719" id="Path" stroke="#33313F" stroke-width="2" fill="#FFFFFF" fill-rule="nonzero" stroke-linecap="round"></line>
            <line x1="22.9105036" y1="27.6667626" x2="23.6201439" y2="28.6135252" id="Path" stroke="#33313F" stroke-width="2" fill="#FFFFFF" fill-rule="nonzero" stroke-linecap="round"></line>
            <line x1="23.6201439" y1="27.5953957" x2="22.9341007" y2="28.6607194" id="Path" stroke="#33313F" stroke-width="2" fill="#FFFFFF" fill-rule="nonzero" stroke-linecap="round"></line>
            <path d="M17.5263309,29.8785612 C17.8249922,29.8646442 18.1242133,29.8682956 18.422446,29.8894964 C18.4620817,29.8937477 18.4935614,29.9247504 18.4984173,29.9643165 L18.5260432,30.1997122 C18.5288161,30.2104945 18.526482,30.221953 18.5197122,30.2307914 C18.5131211,30.2347586 18.5055319,30.2367557 18.4978417,30.2365468 C18.3723741,30.24 18.2463309,30.225036 18.1214388,30.2365468 C18.043741,30.2423022 17.9671942,30.2572662 17.891223,30.2658993 C17.7637701,30.277127 17.6356883,30.2794348 17.5079137,30.2728058 C17.3280706,30.275947 17.1486751,30.2538616 16.974964,30.2071942 C16.9715108,30.2071942 16.9853237,30.0126619 16.9853237,29.9936691 C16.9853237,29.9027338 16.9818705,29.8952518 17.0756835,29.8923741 L17.5263309,29.8785612 Z" id="Path" stroke="#33313F" stroke-width="2" stroke-linecap="round"></path>
            <path d="M23.0008633,29.0094964 C23.299531,28.9954837 23.5987692,28.9993274 23.8969784,29.0210072 C23.9368095,29.0248429 23.9685063,29.0560595 23.9729496,29.0958273 L24.0005755,29.3306475 C24.0033485,29.3414298 24.0010143,29.3528882 23.9942446,29.3617266 C23.9878889,29.3662237 23.9801201,29.3682681 23.9723741,29.367482 C23.8469065,29.3709353 23.7208633,29.3559712 23.5959712,29.367482 C23.5182734,29.3732374 23.4417266,29.388777 23.3657554,29.3968345 C23.2383176,29.4083446 23.1102158,29.4106527 22.982446,29.403741 C22.8024155,29.4068453 22.6228351,29.384761 22.4489209,29.3381295 C22.4460432,29.3381295 22.4592806,29.1435971 22.4592806,29.1246043 C22.4592806,29.0336691 22.4564029,29.0261871 22.5502158,29.0233094 L23.0008633,29.0094964 Z" id="Path" stroke="#33313F" stroke-width="2" stroke-linecap="round"></path>
            <path d="M23.4572662,29.6615827 C23.1587968,29.6476658 22.8597672,29.6513172 22.5617266,29.672518 C22.5218956,29.6763537 22.4901988,29.7075703 22.4857554,29.7473381 L22.4592806,29.9821583 C22.4559099,29.9929176 22.4583007,30.004654 22.4656115,30.0132374 C22.4719443,30.0177834 22.4797319,30.0198328 22.487482,30.0189928 C22.6129496,30.022446 22.7384173,30.0080576 22.8638849,30.0189928 C22.9415827,30.0247482 23.0181295,30.0402878 23.0941007,30.0489209 C23.221569,30.0598567 23.3496306,30.0621641 23.4774101,30.0558273 C23.6574442,30.0589997 23.8370341,30.0369142 24.0109353,29.9902158 C24.0138129,29.9902158 24.0005755,29.7951079 24.0005755,29.7766906 C24.0005755,29.6851799 24.0040288,29.6776978 23.9102158,29.6753957 L23.4572662,29.6615827 Z" id="Path" stroke="#33313F" stroke-width="2" stroke-linecap="round"></path>
            <path d="M19.7329496,29.2639808 C19.7329496,29.2639808 20.5795683,29.1889808 20.7315108,29.2639808" id="Path" stroke="#33313F" stroke-width="3"></path>
            <path d="M20.7326619,28.7798561 C20.7326619,28.7798561 21.1015827,29.148777 21.1015827,29.2356835 C21.1015827,29.3225899 20.6238849,29.6264748 20.6238849,29.6264748" id="Path" stroke="#33313F" stroke-width="3"></path>
            <path d="M25.2702158,28.4483453 C25.2702158,28.4483453 26.0374101,28.0892086 26.1945324,28.0719424" id="Path" stroke="#33313F" stroke-width="3"></path>
            <path d="M26.0230216,27.6500719 C26.0230216,27.6500719 26.5035971,27.8526619 26.5364029,27.9326619 C26.5692086,28.0126619 26.2417266,28.4748201 26.2417266,28.4748201" id="Path" stroke="#33313F" stroke-width="3"></path>
            <path d="M25.2621583,29.3680576 C25.2621583,29.3680576 26.0420144,29.6989928 26.16,29.8048921" id="Path" stroke="#33313F" stroke-width="3"></path>
            <path d="M26.3591367,29.3945324 C26.3591367,29.3945324 26.5317986,29.8877698 26.4915108,29.9660432 C26.451223,30.0443165 25.891223,30.108777 25.891223,30.108777" id="Path" stroke="#33313F" stroke-width="3"></path>
            <path d="M28.2889209,27.5591367 C28.3150508,27.6224539 28.3236011,27.6916513 28.3136691,27.7594245 C28.3139714,27.7648235 28.3127763,27.7702011 28.3102158,27.774964 C28.3037011,27.7810645 28.2949485,27.7841905 28.2860432,27.7835971 L27.738705,27.8048921 C27.738705,27.8048921 27.7697842,27.643741 27.7738129,27.6322302 C27.7922302,27.5666187 27.8405755,27.5838849 27.9021583,27.5804317 L28.2889209,27.5591367 Z" id="Path" stroke="#33313F" stroke-width="2" fill="#FFFFFF" fill-rule="nonzero" stroke-linecap="round"></path>
            <polygon id="Path" fill="#33313F" fill-rule="nonzero" points="17.9493525 32.5191367 18.1427338 32.3389928 17.9700719 32.3320863 17.8797122 32.4707914"></polygon>
            <polygon id="Path" fill="#65617D" fill-rule="nonzero" points="16.5582734 33.7807194 16.7631655 33.5176978 16.8086331 33.4705036 17.4359712 32.8132374 17.6494964 32.5899281 17.7496403 32.5778417 17.8935252 32.4351079 17.9781295 32.5093525 17.8382734 32.6728058 17.8405755 32.7585612 17.622446 32.9951079 17.0066187 33.6638849 16.9669065 33.7064748 16.7194245 33.9355396"></polygon>
            <polygon id="Path" fill="#33313F" fill-rule="nonzero" points="16.8086331 33.4705036 17.4359712 32.8132374 17.622446 32.9951079 17.0066187 33.6638849"></polygon>
            <path d="M17.7553957,33.723741 C17.573043,33.5540242 17.4144834,33.3604228 17.2840288,33.1482014 C17.0077698,32.7176978 16.5461871,32.4851799 16.2296403,32.3694964 L16.2296403,32.2296403 L16.2492086,32.2256115 L16.2405755,32.0955396 L16.2492086,32.0955396 L16.2267626,31.7502158 L16.2267626,31.7473381 L16.2267626,31.7473381 L16.1128058,30.0339568 C16.1128058,30.0339568 15.7070504,28.8915108 16.4282014,27.8376978 C17.1493525,26.7838849 16.4730935,25.7732374 15.7951079,25.3778417 C15.7951079,25.3778417 15.4797122,23.708777 15.7502158,23.3133813 C15.3832801,23.1021803 15.0051721,22.9110129 14.617554,22.7407194 C14.611223,22.72 14.6060432,22.6992806 14.6008633,22.6774101 C14.5933813,22.5220144 14.5835971,22.3666187 14.574964,22.211223 C14.5839812,22.1304562 14.5987915,22.0504419 14.6192806,21.9717986 C14.6279137,21.9389928 14.6376978,21.9061871 14.6480576,21.8722302 C15.3077236,21.6201757 15.7452724,20.9893285 15.7502158,20.2831655 C15.750364,20.0818665 15.7140966,19.882201 15.6431655,19.6938129 C15.6795516,19.6339504 15.7072617,19.5692289 15.7254676,19.5015827 C15.7686331,19.323741 15.7197122,19.1338129 15.6184173,18.9536691 C15.4376978,18.5634532 14.9870504,18.1979856 14.6601439,18.0627338 C14.1916547,17.8728058 13.4866187,17.9176978 12.9985612,17.9764029 C12.7246043,18.0092086 12.4120863,18.1007194 12.3130935,18.3516547 C12.2768345,18.443741 12.276259,18.5456115 12.2509353,18.6394245 C12.1484892,19.0227338 11.7058993,19.2011511 11.432518,19.4946763 C11.1907914,19.7536691 11.0871942,20.1041727 11.0066187,20.4454676 C10.7821926,21.4236254 10.7286455,22.4332309 10.8483453,23.4296403 C10.8759712,23.6598561 10.9128058,23.8871942 10.9519424,24.1151079 C10.7873381,24.3453237 10.6388489,24.7522302 10.7067626,25.4589928 L10.1657554,28.0063309 L9.94071942,29.4998561 C9.94071942,29.4998561 9.80546763,30.1145324 10.3435971,30.6417266 C10.6889209,30.9778417 11.1061871,31.5458993 11.3634532,31.9136691 C11.2514335,32.2393011 11.1959568,32.5816995 11.1994245,32.9260432 C11.2051799,33.0825899 11.2138129,33.2339568 11.2247482,33.3778417 C11.2475361,33.6835257 11.3054722,33.9855657 11.3974101,34.2779856 C11.4607194,34.8915108 11.5856115,35.6759712 11.8302158,36.1772662 L11.92,38.8564029 C11.92,38.8564029 11.7847482,41.316259 11.5171223,41.7991367 C11.2494964,42.2820144 12.102446,46.3671942 12.102446,46.3671942 L12.102446,46.9381295 L11.9585612,47.3605755 L11.9223022,47.3335252 C11.2466187,48.1680576 11.9223022,48.4753957 11.9223022,48.4753957 C11.9223022,48.4753957 12.1064748,48.4840288 12.4005755,48.4955396 C12.3492138,48.7363644 12.4676844,48.9813616 12.6883453,49.0906475 C12.6883453,49.0906475 16.5174101,49.2661871 17.1936691,49.0906475 C17.8699281,48.9151079 17.6892086,48.2998561 17.3283453,48.342446 C17.1907914,48.3597122 16.9876259,48.3234532 16.7890647,48.2722302 C16.9991367,48.0276259 16.8310791,47.6966906 16.5628777,47.7277698 C16.2025899,47.7715108 15.3916547,47.4526619 15.3916547,47.4526619 L15.3876259,47.4578417 C15.3617365,47.447973 15.3351991,47.4398964 15.3082014,47.4336691 C15.0069604,47.3659182 14.7093981,47.2827391 14.4166906,47.1844604 C14.2440288,46.8143885 13.8411511,45.8198561 14.1289209,45.0486331 C14.2589928,44.6998561 14.3015827,44.2359712 14.3015827,43.7858993 C14.3084518,42.4281344 14.5082431,41.0782357 14.894964,39.7766906 L15.4353957,37.934964 C15.4353957,37.934964 16.2014388,35.6943885 16.2463309,35.0797122 L16.2434532,34.1853237 C16.8765468,34.5882014 17.3801439,34.4673381 17.701295,34.2791367 C17.796316,34.2230799 17.8588333,34.1249957 17.8695293,34.0151915 C17.8802252,33.9053873 17.8378122,33.7970818 17.7553957,33.723741 Z M11.7427338,29.0618705 C11.7582734,28.9974101 11.7709353,28.9271942 11.7818705,28.8529496 C11.8877698,28.8529496 11.9942446,28.8529496 12.1001439,28.8494964 C12.231866,29.1170726 12.2872296,29.4157972 12.2601439,29.7128058 C12.0161151,29.6374101 11.651223,29.4526619 11.7427338,29.0647482 L11.7427338,29.0618705 Z" id="Shape" fill="url(#linearGradient-1)" fill-rule="nonzero"></path>
            <path d="M12.1709353,46.7246043 L11.9982734,47.2425899 L12.5617266,47.8060432 L14.4258993,48.2394245 L15.7697842,48.1093525 L15.6828777,47.6322302 L15.6828777,47.6322302 C15.6301909,47.4235173 15.4654388,47.2616517 15.2558273,47.2126619 C14.7033094,47.0825899 13.6500719,46.7867626 13.4284892,46.3752518 L12.1709353,46.7246043 Z" id="Path" fill="#DB8B8B" fill-rule="nonzero"></path>
            <path d="M12.1709353,46.7246043 L11.9982734,47.2425899 L12.5617266,47.8060432 L14.4258993,48.2394245 L15.7697842,48.1093525 L15.6828777,47.6322302 L15.6828777,47.6322302 C15.6301909,47.4235173 15.4654388,47.2616517 15.2558273,47.2126619 C14.7033094,47.0825899 13.6500719,46.7867626 13.4284892,46.3752518 L12.1709353,46.7246043 Z" id="Path" fill="#000000" fill-rule="nonzero" opacity="0.1"></path>
            <path d="M15.3358273,47.9792806 L15.0756835,47.6339568 L15.3358273,47.2310791 C15.3358273,47.2310791 16.1156835,47.5458993 16.4627338,47.5027338 C16.8097842,47.4595683 16.9807194,48.0661871 16.3326619,48.2394245 C15.6846043,48.4126619 11.9976978,48.2394245 11.9976978,48.2394245 C11.9976978,48.2394245 11.3473381,47.9361151 11.9976978,47.112518 L12.5611511,47.5458993 C12.5611511,47.5458993 13.5148201,48.0638849 13.9919424,47.9792806 L15.3358273,47.9792806 Z" id="Path" fill="#2E3037" fill-rule="nonzero"></path>
            <path d="M16.5058993,48.7165468 L15.1620144,48.8466187 L13.2978417,48.4126619 L12.7326619,47.8492086 L12.778705,47.7116547 L12.8431655,47.5182734 L12.9064748,47.3289209 L14.1634532,46.9835971 C14.2272723,47.0874024 14.314612,47.1747421 14.4184173,47.2385612 C14.8264748,47.5176978 15.5602878,47.7197122 15.9907914,47.8204317 C16.0086331,47.825036 16.0270504,47.8302158 16.0443165,47.8365468 C16.2295006,47.8981695 16.3703769,48.0501163 16.4178417,48.2394245 L16.5058993,48.7165468 Z" id="Path" fill="#DB8B8B" fill-rule="nonzero"></path>
            <path d="M16.5058993,48.7165468 L15.1620144,48.8466187 L13.2978417,48.4126619 L12.7326619,47.8492086 L12.778705,47.7116547 L13.2966906,48.1093525 C13.2966906,48.1093525 14.2509353,48.6273381 14.727482,48.5427338 L16.0707914,48.5427338 L15.8106475,48.1974101 L16.0443165,47.8365468 C16.2295006,47.8981695 16.3703769,48.0501163 16.4178417,48.2394245 L16.5058993,48.7165468 Z" id="Path" fill="#000000" fill-rule="nonzero" opacity="0.1"></path>
            <path d="M16.0707914,48.5864748 L15.8106475,48.2411511 L16.0707914,47.8382734 C16.0707914,47.8382734 16.851223,48.1530935 17.1976978,48.1099281 C17.5441727,48.0667626 17.7156835,48.6733813 17.0682014,48.8471942 C16.4207194,49.0210072 12.7326619,48.8471942 12.7326619,48.8471942 C12.7326619,48.8471942 12.0823022,48.5433094 12.7326619,47.7197122 L13.2961151,48.1530935 C13.2961151,48.1530935 14.2503597,48.6710791 14.7269065,48.5870504 L16.0707914,48.5864748 Z" id="Path" fill="#2E3037" fill-rule="nonzero"></path>
            <path d="M14.988777,23.4428777 C14.988777,23.4428777 12.9082014,23.6592806 13.2115108,22.792518 C13.2965263,22.5467284 13.3184923,22.283532 13.2753957,22.0270504 C13.2215143,21.709079 13.0959426,21.4075493 12.9082014,21.1453237 L14.858705,21.4486331 C14.7418162,21.6439907 14.6528932,21.8547711 14.5945324,22.0748201 C14.3620144,22.9951079 14.988777,23.4428777 14.988777,23.4428777 Z" id="Path" fill="#DB8B8B" fill-rule="nonzero"></path>
            <path d="M11.4342446,33.3266187 C11.4342446,33.3266187 11.4774101,35.1907914 11.9107914,36.101295 L11.9976978,38.7453237 C11.9976978,38.7453237 11.8676259,41.1735252 11.607482,41.6500719 C11.3473381,42.1266187 12.1709353,46.1588489 12.1709353,46.1588489 L12.1709353,46.8523741 C12.1709353,46.8523741 13.5579856,47.3703597 13.9482014,46.7654676 L13.5579856,41.6069065 L13.7306475,34.4541007 L11.4342446,33.3266187 Z" id="Path" fill="#35323E" fill-rule="nonzero"></path>
            <path d="M11.4336691,33.3266187 C11.4336691,33.3266187 11.4768345,35.1907914 11.9102158,36.101295 L11.9971223,38.7453237 C11.9971223,38.7453237 11.8670504,41.1735252 11.6069065,41.6500719 C11.3467626,42.1266187 12.1703597,46.1588489 12.1703597,46.1588489 L12.1703597,46.8523741 C12.1703597,46.8523741 13.5574101,47.3703597 13.9476259,46.7654676 L13.5574101,41.6069065 L13.7300719,34.4541007 L11.4336691,33.3266187 Z" id="Path" fill="#000000" fill-rule="nonzero" opacity="0.1"></path>
            <path d="M10.5669065,27.3444604 L10.3067626,28.0379856 L10.0903597,29.5119424 C10.0309164,29.9285427 10.1762373,30.3482159 10.4805755,30.6388489 C10.9985612,31.1568345 11.6943885,32.2428777 11.6943885,32.2428777 L12.5179856,29.7720863 C12.5179856,29.7720863 11.6943885,29.6420144 11.8273381,29.0785612 C11.9602878,28.5151079 11.9136691,27.4745324 11.9136691,27.4745324 L10.5669065,27.3444604 Z" id="Path" fill="#2170F2" fill-rule="nonzero"></path>
            <path d="M14.4201439,47.2374101 C13.8635971,48.1128058 12.9985612,47.6166906 12.8448921,47.5182734 L12.9082014,47.3289209 L14.1651799,46.9835971 C14.2291408,47.0869831 14.3164696,47.1739176 14.4201439,47.2374101 L14.4201439,47.2374101 Z" id="Path" fill="#000000" fill-rule="nonzero" opacity="0.1"></path>
            <path d="M16.1594245,35.017554 C16.1156835,35.6241727 15.3789928,37.8376978 15.3789928,37.8376978 L14.8610072,39.6569784 C14.4874316,40.9424131 14.2941236,42.2734883 14.2866187,43.6120863 C14.2866187,44.0558273 14.2457554,44.5139568 14.1208633,44.8581295 C13.7755396,45.8117986 14.4661871,47.112518 14.4661871,47.112518 C13.8595683,48.196259 12.8189928,47.4578417 12.8189928,47.4578417 L12.8189928,46.7671942 C12.8189928,46.7671942 11.9976978,42.9939568 12.2146763,42.2572662 C12.4316547,41.5205755 12.5185612,39.5257554 12.5185612,39.5257554 L12.5185612,35.9280576 C11.8236144,35.2357947 11.401289,34.3163635 11.3289209,33.3381295 C11.3185612,33.1959712 11.3099281,33.0469065 11.3047482,32.8920863 C11.2696403,31.9136691 11.9378417,30.7671942 12.1991367,30.3597122 C12.262446,30.2607194 12.3015827,30.2054676 12.3015827,30.2054676 L16.1283453,31.723741 L16.1369784,31.7271942 L16.1369784,31.8751079 L16.1369784,32.2031655 L16.1594245,35.017554 Z" id="Path" fill="#35323E" fill-rule="nonzero"></path>
            <path d="M14.858705,21.4486331 C14.7418162,21.6439907 14.6528932,21.8547711 14.5945324,22.0748201 C14.1664634,22.2380036 13.6905402,22.220769 13.2753957,22.0270504 C13.2215143,21.709079 13.0959426,21.4075493 12.9082014,21.1453237 L14.858705,21.4486331 Z" id="Path" fill="#000000" fill-rule="nonzero" opacity="0.1"></path>
            <circle id="Oval" fill="#DB8B8B" fill-rule="nonzero" cx="13.9919424" cy="20.4080576" r="1.69093525"></circle>
            <path d="M16.1594245,32.1997122 L16.1404317,32.2031655 C14.3228777,32.5766906 12.0420144,30.6825899 12.0420144,30.6825899 C12.1033477,30.5794718 12.1560917,30.4714815 12.1997122,30.3597122 C12.2630216,30.2607194 12.3021583,30.2054676 12.3021583,30.2054676 L16.1283453,31.723741 L16.1381295,31.8751079 L16.1594245,32.1997122 Z" id="Path" fill="#000000" fill-rule="nonzero" opacity="0.1"></path>
            <path d="M15.6823022,23.3997122 C15.6823022,23.3997122 13.2546763,21.9257554 12.4742446,22.5323741 L11.3905036,23.9194245 C11.3905036,23.9194245 10.6969784,24.1364029 10.8270504,25.5234532 L10.3090647,28.0379856 L11.8693525,28.4282014 C11.8693525,28.4282014 12.7798561,29.294964 12.0420144,30.552518 C12.0420144,30.552518 14.3395683,32.4598561 16.1605755,32.0696403 L16.0293525,30.0339568 C16.0293525,30.0339568 15.6391367,28.9064748 16.3326619,27.8664748 C17.0261871,26.8264748 16.3758273,25.8290647 15.7260432,25.4388489 C15.7254676,25.4371223 15.4221583,23.7893525 15.6823022,23.3997122 Z" id="Path" fill="#2170F2" fill-rule="nonzero"></path>
            <path d="M15.8123741,32.2428777 C15.8123741,32.2428777 16.7228777,32.4155396 17.156259,33.1102158 C17.2813703,33.3187966 17.4341222,33.5094944 17.6103597,33.6771223 C17.6897254,33.750555 17.7301143,33.8569226 17.7194896,33.9645255 C17.708865,34.0721285 17.6484535,34.1685431 17.556259,34.225036 C17.2109353,34.4322302 16.6515108,34.5594245 15.9447482,33.9769784 C14.7286331,32.9801439 15.8123741,32.2428777 15.8123741,32.2428777 Z" id="Path" fill="#DB8B8B" fill-rule="nonzero"></path>
            <path d="M14.4684892,24.2210072 C14.4684892,24.2210072 13.6017266,24.1341007 13.3847482,26.3884892 C13.1677698,28.6428777 12.821295,29.1625899 12.821295,29.1625899 C12.821295,29.1625899 12.6043165,30.3332374 13.1246043,31.0267626 C13.6448921,31.7202878 14.6417266,33.1994245 14.6417266,33.1994245 C14.6417266,33.1994245 15.7260432,33.5033094 15.942446,32.4189928 L14.5985612,29.905036 C14.5985612,29.905036 14.3821583,29.0376978 14.9018705,28.4310791 C15.4215827,27.8244604 15.8123741,23.7893525 14.4684892,24.2210072 Z" id="Path" fill="#000000" fill-rule="nonzero" opacity="0.1"></path>
            <path d="M14.5553957,24.0932374 C14.5553957,24.0932374 13.6880576,24.0063309 13.4716547,26.2607194 C13.2552518,28.5151079 12.9082014,29.0348201 12.9082014,29.0348201 C12.9082014,29.0348201 12.691223,30.2066187 13.2115108,30.8972662 C13.7317986,31.5879137 14.7286331,33.0647482 14.7286331,33.0647482 C14.7286331,33.0647482 15.8123741,33.3686331 16.0293525,32.2848921 L14.6854676,29.7703597 C14.6854676,29.7703597 14.4684892,28.9030216 14.988777,28.2964029 C15.5090647,27.6897842 15.8981295,23.6592806 14.5553957,24.0932374 Z" id="Path" fill="#2170F2" fill-rule="nonzero"></path>
            <path d="M15.2707914,25.7174101 C15.2707914,25.7174101 15.3571223,27.061295 14.9669065,27.7985612 C14.5766906,28.5358273 14.5766906,29.4889209 14.9669065,30.0092086" id="Path" fill="#000000" fill-rule="nonzero" opacity="0.1"></path>
            <path d="M15.4871942,24.0713669 C15.4871942,24.0713669 15.1418705,23.7260432 14.1433094,23.6811511 C13.1447482,23.636259 12.7130935,23.3358273 12.7130935,23.3358273" id="Path" fill="#000000" fill-rule="nonzero" opacity="0.1"></path>
            <path d="M13.0779856,18.2233094 C12.8143885,18.2555396 12.5133813,18.3458993 12.4184173,18.5939568 C12.3833094,18.6848921 12.3827338,18.785036 12.3579856,18.8817266 C12.2595683,19.2604317 11.8336691,19.4365468 11.5706475,19.7260432 C11.3404317,19.9815827 11.236259,20.327482 11.1608633,20.6641727 C10.9444061,21.6296297 10.8920676,22.624644 11.0060432,23.607482 C11.0906475,24.3263309 11.2633094,25.0336691 11.3122302,25.7559712 C11.3611511,26.4782734 11.2719424,27.2379856 10.8771223,27.8446043 C10.7044604,28.1058993 10.4834532,28.334964 10.3631655,28.6221583 C10.6117986,28.8235971 10.9548201,28.8523741 11.2748201,28.8633094 C11.6477698,28.8759712 12.0207194,28.8759712 12.3936691,28.8633094 C12.5893525,28.8564029 12.7936691,28.843741 12.9623022,28.7447482 C13.0872028,28.6649059 13.1899414,28.5548429 13.2610072,28.4247482 C13.4739568,28.0627338 13.5280576,27.6276259 13.5188489,27.207482 C13.5096403,26.7873381 13.4434532,26.3700719 13.4353957,25.9499281 C13.4313669,25.7197122 13.4492086,25.4779856 13.5810072,25.2903597 C13.6759712,25.1551079 13.8204317,25.0641727 13.9441727,24.9542446 C14.4086331,24.5433094 14.567482,23.883741 14.5830216,23.2638849 C14.5985612,22.6440288 14.4966906,22.0230216 14.5490647,21.4054676 C14.5692086,21.1631655 14.6595683,20.8730935 14.8978417,20.8258993 C14.9726619,20.8109353 15.0526619,20.8258993 15.1240288,20.7971223 C15.3151079,20.7240288 15.2966906,20.4546763 15.3507914,20.2578417 C15.4123741,20.036259 15.6011511,19.8653237 15.6541007,19.6420144 C15.7789928,19.1176978 15.1113669,18.4909353 14.6756835,18.3090647 C14.2238849,18.1202878 13.5453237,18.1657554 13.0779856,18.2233094 Z" id="Path" fill="#000000" fill-rule="nonzero" opacity="0.1"></path>
            <path d="M13.032518,18.1369784 C12.7689209,18.1692086 12.4679137,18.2595683 12.3729496,18.5070504 C12.3484592,18.6018357 12.329245,18.6979066 12.3153957,18.7948201 C12.2169784,19.1735252 11.7905036,19.3496403 11.527482,19.6397122 C11.2972662,19.8946763 11.1930935,20.2405755 11.1176978,20.5778417 C10.9022248,21.5440493 10.8508603,22.5396255 10.9657554,23.5228777 C11.0503597,24.2417266 11.2230216,24.9496403 11.2713669,25.6713669 C11.3197122,26.3930935 11.2316547,27.1533813 10.8368345,27.76 C10.6641727,28.021295 10.4431655,28.2503597 10.3228777,28.537554 C10.5715108,28.7395683 10.9145324,28.7677698 11.2345324,28.778705 C11.607482,28.7913669 11.9804317,28.7913669 12.3533813,28.778705 C12.5490647,28.7717986 12.7533813,28.7597122 12.9220144,28.6601439 C13.0469957,28.5805766 13.1496086,28.470436 13.2201439,28.3401439 C13.4336691,27.9781295 13.4871942,27.5430216 13.4785612,27.1228777 C13.4699281,26.7027338 13.4025899,26.2854676 13.3951079,25.8653237 C13.3910791,25.6351079 13.4089209,25.3933813 13.5401439,25.2063309 C13.6356835,25.0705036 13.7801439,24.9795683 13.9038849,24.8702158 C14.3677698,24.458705 14.5271942,23.7991367 14.5427338,23.1792806 C14.5582734,22.5594245 14.4558273,21.9384173 14.5082014,21.3208633 C14.5289209,21.0791367 14.6192806,20.7884892 14.8569784,20.7418705 C14.9323741,20.7269065 15.0123741,20.7418705 15.083741,20.712518 C15.2748201,20.6394245 15.2564029,20.3706475 15.3105036,20.1732374 C15.3715108,19.9516547 15.5602878,19.781295 15.6138129,19.5579856 C15.738705,19.0330935 15.0710791,18.4069065 14.6353957,18.2244604 C14.1801439,18.0345324 13.5021583,18.0788489 13.032518,18.1369784 Z" id="Path" fill="#35323E" fill-rule="nonzero"></path>
        </g>
    </g>
</svg>