<?xml version="1.0" encoding="UTF-8"?>
<svg width="64px" height="64px" viewBox="0 0 64 64" version="1.1" xmlns="http://www.w3.org/2000/svg" xmlns:xlink="http://www.w3.org/1999/xlink">
    <!-- Generator: Sketch 60 (88103) - https://sketch.com -->
    <title>Artboard</title>
    <desc>Created with Sketch.</desc>
    <g id="Artboard" stroke="none" stroke-width="1" fill="none" fill-rule="evenodd">
        <rect fill="#FFFFFF" opacity="0" x="0" y="0" width="64" height="64"></rect>
        <g id="process_idea" transform="translate(0.000000, 5.000000)" fill-rule="nonzero">
            <path d="M60.4022905,17.0609862 C60.4022905,19.280789 59.8765267,21.1080079 58.9645015,22.6732939 C58.6634875,23.1888659 58.3217835,23.6795774 57.9426474,24.1407495 C54.5899058,28.2414201 48.356533,30.4858383 42.7227658,34.1213412 C26.0928644,44.8523866 24.2915232,27.6569625 25.042608,17.0609862 C25.3455665,12.7854832 27.0105764,8.86911243 29.6557835,5.87045365 C30.2113197,5.23978579 30.8114158,4.64981436 31.4514443,4.10508876 C34.4545212,1.54761341 38.3342845,-5.68434189e-14 42.7227658,-5.68434189e-14 C50.2519176,-5.68434189e-14 56.6815823,4.54122288 59.2308525,10.9405917 C60.0058931,12.8879856 60.4034368,14.9650307 60.4022905,17.0609862 L60.4022905,17.0609862 Z" id="Path" fill="#2170F2"></path>
            <path d="M46.4895514,3.84504805 L29.6557841,5.87045239 C30.2113204,5.23978452 30.8114164,4.6498131 31.4514449,4.1050875 L46.4895514,3.84504805 Z" id="Path" fill="#D0CDE1"></path>
            <path d="M58.9645021,22.6732926 C58.6634881,23.1888646 58.3217841,23.6795761 57.942648,24.1407482 L43.523082,22.4063104 L58.9645021,22.6732926 Z" id="Path" fill="#D0CDE1"></path>
            <path d="M59.8190914,12.7002742 L35.3810676,9.5305701 L59.2308507,10.9405898 C59.4599044,11.5156086 59.6562974,12.1031057 59.8190914,12.7002742 Z" id="Path" fill="#D0CDE1"></path>
            <path d="M26.7003304,4.54451377 C26.7003304,4.58806406 26.6990681,4.6309832 26.6952811,4.67327116 C26.6429806,5.390449 26.1613083,6.00440881 25.4771887,6.22590322 C24.7930691,6.44739763 24.0429593,6.23224653 23.5802492,5.68181142 C23.1175392,5.13137632 23.0345228,4.35544907 23.3703107,3.7195828 C23.4083068,3.64675755 23.4517713,3.57691888 23.5003304,3.51066761 C23.9332067,2.91028173 24.69447,2.64340991 25.407471,2.84209201 C26.120472,3.04077412 26.6340166,3.66287896 26.6940188,4.40060844 C26.698435,4.44794383 26.7003304,4.4959129 26.7003304,4.54451377 Z" id="Path" fill="#2170F2"></path>
            <path d="M26.7003304,4.54451377 C26.7003304,4.58806406 26.6990681,4.6309832 26.6952811,4.67327116 L24.0494428,4.35516465 L26.6940188,4.40060844 C26.698435,4.44794383 26.7003304,4.4959129 26.7003304,4.54451377 Z" id="Path" fill="#D0CDE1"></path>
            <path d="M26.0691667,5.4350845 L23.6215138,5.72983795 C23.5520357,5.65238469 23.489519,5.5689587 23.4346894,5.48052828 L26.0691667,5.4350845 Z" id="Path" fill="#D0CDE1"></path>
            <path d="M25.3748866,3.478477 L23.3703107,3.71958154 C23.4083068,3.64675629 23.4517713,3.57691762 23.5003304,3.51066635 L25.3748866,3.478477 Z" id="Path" fill="#D0CDE1"></path>
            <path d="M50.9201584,36.3630978 C50.8997428,36.4015665 50.8785073,36.4388847 50.8553379,36.4744622 C50.4729445,37.0834398 49.7596663,37.3999646 49.051541,37.2749162 C48.3434157,37.1498679 47.7816884,36.608189 47.6309983,35.9050738 C47.4803083,35.2019585 47.7707127,34.4776527 48.3653971,34.0733892 C48.4330981,34.0268731 48.5042296,33.9855585 48.5781794,33.949801 C49.2419925,33.6223896 50.0395337,33.7435171 50.576204,34.2532534 C51.1128743,34.7629898 51.2748708,35.5532435 50.9820428,36.2330212 C50.9637535,36.2769092 50.9429409,36.3201673 50.9201584,36.3630978 Z" id="Path" fill="#2170F2"></path>
            <path d="M50.9201584,36.3630978 C50.8997428,36.4015665 50.8785073,36.4388847 50.8553379,36.4744622 L48.6673439,34.9531733 L50.9820447,36.2330237 C50.9637535,36.2769092 50.9429409,36.3201673 50.9201584,36.3630978 Z" id="Path" fill="#D0CDE1"></path>
            <path d="M49.9451632,36.8538812 L47.6449338,35.9668437 C47.6198717,35.8658581 47.6037584,35.7628602 47.5967811,35.6590454 L49.9451632,36.8538812 Z" id="Path" fill="#D0CDE1"></path>
            <path d="M50.2491007,34.8001123 L48.365399,34.0733905 C48.4331,34.0268743 48.5042314,33.9855598 48.5781813,33.9498023 L50.2491007,34.8001123 Z" id="Path" fill="#D0CDE1"></path>
            <path d="M63.4369161,5.89838517 C63.4673231,5.92956465 63.4963844,5.96117144 63.5231962,5.99408852 C63.9864903,6.54403421 64.0703282,7.31987503 63.7352123,7.95609747 C63.4000964,8.5923199 62.7128704,8.96202013 61.9972998,8.89102527 C61.2817291,8.82003041 60.6805447,8.32250142 60.4769761,7.63283377 C60.4533308,7.55416919 60.4356859,7.47382452 60.4241931,7.39249105 C60.3149001,6.66043847 60.6735605,5.93786921 61.3227202,5.58228852 C61.9718799,5.22670783 62.7738822,5.3135179 63.3319208,5.79976773 C63.3681344,5.8305742 63.4029835,5.86359164 63.4369161,5.89838517 Z" id="Path" fill="#2170F2"></path>
            <path d="M63.4369161,5.89838517 C63.4673231,5.92956465 63.4963844,5.96117144 63.5231962,5.99408852 L61.4069327,7.61367858 L63.3319189,5.79976773 C63.3681344,5.8305742 63.4029835,5.86359164 63.4369161,5.89838517 Z" id="Path" fill="#D0CDE1"></path>
            <path d="M63.6068607,6.97662611 L62.0603733,8.89659203 C61.9565563,8.88965177 61.8535529,8.87357527 61.7525586,8.84854911 L63.6068607,6.97662611 Z" id="Path" fill="#D0CDE1"></path>
            <path d="M61.743721,6.06063085 L60.4769755,7.63283377 C60.4533302,7.55416919 60.4356852,7.47382452 60.4241925,7.39249105 L61.743721,6.06063085 Z" id="Path" fill="#D0CDE1"></path>
            <path d="M30.2819951,38.4664735 C30.2819951,38.4664735 34.1602165,38.6280666 34.1602165,39.5976218 C34.1602165,40.567177 29.7972172,39.5976218 29.7972172,39.5976218 L30.2819951,38.4664735 Z" id="Path" fill="#A0616A"></path>
            <path d="M24.4646627,53.33299 L17.1929972,52.8482121 L16.8698118,48.9699901 L15.2538862,52.3634342 L8.14381318,51.3938783 C8.3054056,45.2533611 10.8908901,39.2744363 11.0524794,38.4664729 C11.2140686,37.6585095 11.6002809,34.3200025 11.6002809,34.3200025 C12.3064394,32.8220459 16.0068936,32.6814611 18.9074916,32.8171935 C20.1097505,32.8721395 21.1762575,32.9755525 21.8339307,33.0498872 C22.2686056,33.0983606 22.5255517,33.1339184 22.5255517,33.1339184 C23.6841581,34.3280896 24.4307345,35.955318 24.8896518,37.7732349 C26.5443579,44.3225871 24.4646627,53.33299 24.4646627,53.33299 Z" id="Path" fill="#2F2E41"></path>
            <circle id="Oval" fill="#A0616A" cx="16.3850338" cy="11.8036999" r="4.03981444"></circle>
            <path d="M13.6379607,12.7732563 C13.6379607,12.7732563 12.5068137,17.7826253 10.7292945,19.2369584 C8.95177531,20.6912915 17.6777758,19.2369584 17.6777758,19.2369584 C17.6777758,19.2369584 15.7386654,16.0051067 17.1929985,14.5507736 C18.6473316,13.0964406 13.6379607,12.7732563 13.6379607,12.7732563 Z" id="Path" fill="#A0616A"></path>
            <path d="M21.8791814,33.4571039 L19.1983482,33.7544287 L11.6988497,34.5882521 C11.6988497,34.5882521 11.6633038,34.4929079 11.6002809,34.3200032 C11.0557128,32.8349671 8.43307045,25.6085554 8.14381318,23.4383621 C7.82062832,21.0144732 11.2140718,18.105807 11.2140718,18.105807 C11.2140718,18.105807 14.4459235,17.4594367 15.4154761,17.4594367 C16.3850288,17.4594367 20.2632552,18.9137698 20.2632552,18.9137698 L21.7095037,31.9235894 L21.8339333,33.0498847 L21.8791814,33.4571039 Z" id="Path" fill="#D0CDE1"></path>
            <path d="M24.8896518,37.7732355 L19.455295,34.5882521 C19.455295,34.5882521 19.3599413,34.2779872 19.1983482,33.7544287 C19.1175523,33.4926498 19.0190031,33.175935 18.9074935,32.8171942 C18.2805138,30.8037472 17.2285444,27.4814043 16.3850364,25.0542908 C15.0922957,21.3376619 21.3944054,31.679586 21.3944054,31.679586 L21.7095031,31.9235938 L21.8339326,33.0498891 C22.2686075,33.0983624 22.5255536,33.1339203 22.5255536,33.1339203 C23.6841581,34.3280903 24.4307345,35.9553187 24.8896518,37.7732355 Z" id="Path" fill="#000000" opacity="0.15"></path>
            <path d="M17.6777745,19.2369584 C17.6777745,19.2369584 16.061849,21.3376606 17.3545897,25.0542908 C18.6473303,28.770921 20.4248483,34.5882521 20.4248483,34.5882521 L29.7972172,40.0823997 L31.0899579,38.4664735 L22.3639593,31.679586 C22.3639593,31.679586 22.0407738,19.3985508 20.4248483,18.9137729 C18.8089228,18.428995 17.6777745,19.2369584 17.6777745,19.2369584 Z" id="Path" fill="#D0CDE1"></path>
            <path d="M9.6789428,33.376308 C9.6789428,33.376308 11.9412387,38.0624921 12.9107938,37.5777123 C13.880349,37.0929325 10.4869056,32.2451617 10.4869056,32.2451617 L9.6789428,33.376308 Z" id="Path" fill="#A0616A"></path>
            <path d="M9.43655385,20.5296985 L0.872147692,27.6397715 C0.872147692,27.6397715 -2.35970335,29.902068 3.61922462,31.5179935 C9.59815258,33.1339191 10.0829242,34.1034742 10.0829242,34.1034742 C10.0829242,34.1034742 10.7292945,32.0027721 11.5372573,32.3259563 L4.58877602,28.9325122 L10.244516,25.5390681 L9.43655385,20.5296985 Z" id="Path" fill="#D0CDE1"></path>
            <path d="M5.9944344,15.1194521 C6.44392836,14.8968464 7.4365103,14.4475916 8.28198185,13.9063429 C8.22269538,12.1455464 8.43952473,10.5471249 9.07423243,9.6998501 C9.43050036,8.89091787 10.1786383,8.08103511 10.7645772,7.44323471 C12.2035042,5.87697862 15.3853002,5.00270895 15.9496262,5.78526611 C20.2178922,5.86953215 20.6672391,9.21520347 20.6672391,9.21520347 C20.6450348,10.6146114 19.1905957,10.6588926 17.9165166,10.6078978 C18.0306089,11.5632568 17.7265546,12.5559366 16.8460933,12.9961676 C15.1624009,13.8380137 14.6572882,14.9324144 15.4991388,15.6900835 C16.3409893,16.4477526 17.8563143,18.4681808 15.8358791,18.9732841 C13.8154439,19.4783874 13.562885,20.488616 14.1521868,20.9095378 C14.7414886,21.3304596 12.8052229,20.1518757 12.8052229,20.1518757 C12.8052229,20.1518757 12.4684895,22.1723108 10.7006075,21.6672 C10.5421772,21.6219323 10.3838315,21.5059446 10.2281556,21.3324743 C9.75069412,21.8570976 9.32474256,22.167288 9.00371882,22.1690277 C7.16512252,22.1787424 7.38560126,20.1423445 7.38560126,20.1423445 C7.38560126,20.1423445 5.20328394,20.7552353 5.88424584,20.5087842 C6.56520773,20.2623331 6.59437886,19.2214331 4.78495432,18.1902832 C2.97552978,17.1591334 4.97947897,15.6220768 5.9944344,15.1194521 Z" id="Path" fill="#2F2E41"></path>
            <path d="M28.5528256,20.3980055 L28.5235162,20.3941415 L28.5950189,20.6659478 C28.6626086,21.0451519 28.760759,21.418268 28.88851,21.7816464 L30.9856366,29.7537376 C31.1224207,30.2737059 31.5544654,30.6631008 32.0858036,30.7453002 L36.3625505,31.4069245 C36.9292965,31.494598 37.4896475,31.2149594 37.760332,30.7093731 L41.8246387,23.1179721 C41.9516347,22.9076504 42.0676785,22.6909072 42.1723058,22.4686094 L42.3102952,22.210863 L42.2887763,22.2080259 C43.4698639,19.4140663 42.7692586,16.1793671 40.5379607,14.1244979 C38.3066627,12.0696288 35.0253267,11.6372391 32.3378872,13.0439541 C29.6504478,14.450669 28.1358192,17.3934615 28.5528237,20.3980055 L28.5528256,20.3980055 Z" id="Path" fill="#3F3D56"></path>
            <path d="M36.6250118,31.9277747 C36.5496869,31.9277747 36.4744736,31.9219815 36.400036,31.9104543 L31.929653,31.2188251 C31.3493915,31.1291596 30.8775586,30.7039022 30.7282847,30.1360461 L28.536226,21.8030517 C28.4022585,21.4215714 28.2992985,21.0299009 28.2283487,20.6318548 L28.172906,20.2673022 C27.8705154,17.9061465 28.6955319,15.5401695 30.4005133,13.8789847 C32.1054947,12.2177999 34.4921354,11.4546188 36.8446245,11.8183378 L36.8252705,11.9430911 C34.4980612,11.5844638 32.1382643,12.3468333 30.4607539,13.9992483 C28.7832434,15.6516634 27.9853941,17.9997019 28.3089054,20.3320521 L28.3515279,20.6047344 C28.4219423,20.9994156 28.5240352,21.3877834 28.6568161,21.7660699 L30.8503877,30.1039318 C30.9868595,30.6232126 31.4183254,31.0120961 31.9489452,31.0940699 L36.4193288,31.7856991 C36.9851711,31.8726593 37.5443959,31.5935778 37.8151,31.0891386 L37.926417,31.1486801 C37.6690683,31.6281059 37.1691417,31.9273902 36.6250118,31.9277747 L36.6250118,31.9277747 Z" id="Path" fill="#D0CDE1"></path>
            <polygon id="Rectangle" fill="#D0CDE1" transform="translate(36.475604, 25.951583) rotate(-69.884990) translate(-36.475604, -25.951583) " points="32.5209229 25.8699493 40.4302846 25.8699493 40.4302846 26.0332162 32.5209229 26.0332162"></polygon>
            <polygon id="Rectangle" fill="#D0CDE1" transform="translate(33.409763, 25.477288) rotate(-2.515830) translate(-33.409763, -25.477288) " points="33.32813 21.5226075 33.4913969 21.5226075 33.4913969 29.4319692 33.32813 29.4319692"></polygon>
            <path d="M36.2470943,35.7056101 L30.518821,34.8194304 C30.4301506,34.8051844 30.3696295,34.7220046 30.3833595,34.6332528 C30.3970895,34.544501 30.4799159,34.4834972 30.568746,34.4967107 L36.2970193,35.3828904 C36.3549433,35.3915066 36.4038174,35.430483 36.4251061,35.4850377 C36.4463949,35.5395924 36.4368378,35.6013701 36.4000594,35.6469418 C36.363281,35.6925135 36.3049141,35.7148996 36.2470943,35.7056101 L36.2470943,35.7056101 Z" id="Path" fill="#3F3D56"></path>
            <path d="M36.3939755,34.4891708 L30.6657022,33.6029911 C30.6077783,33.5943749 30.5589042,33.5553985 30.5376155,33.5008438 C30.5163267,33.4462891 30.5258838,33.3845114 30.5626622,33.3389397 C30.5994406,33.293368 30.6578075,33.2709819 30.7156273,33.2802714 L36.4439012,34.1664511 C36.5018252,34.1750674 36.5506993,34.2140437 36.571988,34.2685984 C36.5932767,34.3231531 36.5837197,34.3849309 36.5469413,34.4305025 C36.5101629,34.4760742 36.451796,34.4984603 36.3939762,34.4891708 L36.3939755,34.4891708 Z" id="Path" fill="#3F3D56"></path>
            <path d="M36.5408568,33.2727315 L30.812581,32.3865518 C30.7239106,32.3723058 30.6633895,32.289126 30.6771195,32.2003742 C30.6908495,32.1116224 30.7736759,32.0506186 30.862506,32.0638321 L36.5907793,32.9500118 C36.6794497,32.9642578 36.7399708,33.0474376 36.7262408,33.1361894 C36.7125108,33.2249412 36.6296844,33.2859451 36.5408543,33.2727315 L36.5408568,33.2727315 Z" id="Path" fill="#3F3D56"></path>
            <path d="M33.2049029,36.4134697 C34.3411377,36.5892488 35.360207,36.0984887 35.4810547,35.3173277 L31.3663798,34.6807763 C31.2455315,35.4619367 32.0686675,36.2376912 33.2049029,36.4134697 Z" id="Path" fill="#3F3D56"></path>
            <path d="M35.263976,20.6453327 C35.0195667,20.607562 34.8173538,20.4143653 34.7064918,20.2848751 C34.67014,20.2424237 34.6347601,20.1983874 34.5992735,20.1542545 C34.4701684,19.9935445 34.3482717,19.8417755 34.1785133,19.7626313 C33.8038002,19.5878047 33.3622867,19.8319962 32.9800193,20.0939822 L32.8876642,19.9593278 C33.307941,19.6711927 33.7980308,19.4050316 34.2475563,19.6146253 C34.4517333,19.7098641 34.5914591,19.8837939 34.7265502,20.0519643 C34.7609486,20.0947995 34.7952839,20.1375041 34.8304985,20.1786907 C34.9457717,20.3133002 35.1756712,20.5314329 35.4220087,20.4811228 C35.5258169,20.4508665 35.6223633,20.3997555 35.7057452,20.3309147 C35.7692703,20.2835107 35.8364069,20.2411495 35.9065404,20.2042187 C36.197366,20.0647628 36.5435012,20.113682 36.7842897,20.3282708 C36.8262697,20.3680473 36.8660333,20.4100994 36.903401,20.4542372 C36.9768508,20.5379648 37.0461886,20.6169827 37.1364563,20.6457108 C37.2699064,20.6883774 37.4109494,20.6120994 37.5604002,20.5315131 C37.7145303,20.4483421 37.8738594,20.3623056 38.054595,20.3835292 C38.060456,20.3842342 38.0663833,20.3850301 38.072214,20.385932 C38.3938304,20.4356873 38.5421052,20.7913682 38.6260046,21.0568193 L38.4702807,21.1059806 C38.3562812,20.745155 38.2174479,20.5657158 38.035472,20.5457123 C37.9060058,20.5304836 37.7758113,20.6007789 37.6379651,20.6751741 C37.4651651,20.7684854 37.2863135,20.8649341 37.0868898,20.8012888 C36.9534094,20.7588166 36.865547,20.6587405 36.7806492,20.5619465 C36.7471915,20.5223289 36.7116166,20.4845489 36.6740803,20.4487719 C36.4824424,20.2809429 36.2096672,20.2423848 35.9790201,20.3505218 C35.9165164,20.3837639 35.8566668,20.4217723 35.8000025,20.4642095 C35.6986799,20.5468395 35.581034,20.6071168 35.4547806,20.6410881 C35.3919433,20.65389 35.3273204,20.6553275 35.263976,20.6453327 L35.263976,20.6453327 Z" id="Path" fill="#D0CDE1"></path>
        </g>
    </g>
</svg>