<?xml version="1.0" encoding="UTF-8"?>
<svg width="64px" height="64px" viewBox="0 0 64 64" version="1.1" xmlns="http://www.w3.org/2000/svg" xmlns:xlink="http://www.w3.org/1999/xlink">
    <!-- Generator: Sketch 60 (88103) - https://sketch.com -->
    <title>Artboard</title>
    <desc>Created with Sketch.</desc>
    <defs>
        <linearGradient x1="50%" y1="100%" x2="50%" y2="0%" id="linearGradient-1">
            <stop stop-color="#808080" stop-opacity="0.25" offset="0%"></stop>
            <stop stop-color="#808080" stop-opacity="0.12" offset="54%"></stop>
            <stop stop-color="#808080" stop-opacity="0.1" offset="100%"></stop>
        </linearGradient>
        <linearGradient x1="50%" y1="100%" x2="50%" y2="0%" id="linearGradient-2">
            <stop stop-color="#808080" stop-opacity="0.25" offset="0%"></stop>
            <stop stop-color="#808080" stop-opacity="0.12" offset="54%"></stop>
            <stop stop-color="#808080" stop-opacity="0.1" offset="100%"></stop>
        </linearGradient>
        <linearGradient x1="50%" y1="100%" x2="50%" y2="0%" id="linearGradient-3">
            <stop stop-color="#808080" stop-opacity="0.25" offset="0%"></stop>
            <stop stop-color="#808080" stop-opacity="0.12" offset="54%"></stop>
            <stop stop-color="#808080" stop-opacity="0.1" offset="100%"></stop>
        </linearGradient>
        <rect id="path-4" x="0.0352731591" y="0.0470308789" width="9.39245843" height="6.33153207"></rect>
        <rect id="path-6" x="0.0352731591" y="0.0274346793" width="9.39245843" height="6.33153207"></rect>
        <linearGradient x1="0%" y1="50%" x2="100%" y2="50%" id="linearGradient-8">
            <stop stop-color="#808080" stop-opacity="0.25" offset="0%"></stop>
            <stop stop-color="#808080" stop-opacity="0.12" offset="54%"></stop>
            <stop stop-color="#808080" stop-opacity="0.1" offset="100%"></stop>
        </linearGradient>
        <linearGradient x1="0.00629643622%" y1="50.0018066%" x2="100.006296%" y2="50.0018066%" id="linearGradient-9">
            <stop stop-color="#808080" stop-opacity="0.25" offset="0%"></stop>
            <stop stop-color="#808080" stop-opacity="0.12" offset="54%"></stop>
            <stop stop-color="#808080" stop-opacity="0.1" offset="100%"></stop>
        </linearGradient>
        <linearGradient x1="50.0002221%" y1="100.000449%" x2="50.0002221%" y2="0.00140337287%" id="linearGradient-10">
            <stop stop-color="#B3B3B3" stop-opacity="0.25" offset="0%"></stop>
            <stop stop-color="#B3B3B3" stop-opacity="0.1" offset="54%"></stop>
            <stop stop-color="#B3B3B3" stop-opacity="0.05" offset="100%"></stop>
        </linearGradient>
        <linearGradient x1="49.9800916%" y1="99.9486916%" x2="49.9800916%" y2="0%" id="linearGradient-11">
            <stop stop-color="#000000" stop-opacity="0.12" offset="0%"></stop>
            <stop stop-color="#000000" stop-opacity="0.09" offset="55%"></stop>
            <stop stop-color="#000000" stop-opacity="0.02" offset="100%"></stop>
        </linearGradient>
        <linearGradient x1="49.9885247%" y1="100.005627%" x2="49.9885247%" y2="0.0076852476%" id="linearGradient-12">
            <stop stop-color="#000000" stop-opacity="0.12" offset="0%"></stop>
            <stop stop-color="#000000" stop-opacity="0.09" offset="55%"></stop>
            <stop stop-color="#000000" stop-opacity="0.02" offset="100%"></stop>
        </linearGradient>
    </defs>
    <g id="Artboard" stroke="none" stroke-width="1" fill="none" fill-rule="evenodd">
        <rect fill="#FFFFFF" opacity="0" x="0" y="0" width="64" height="64"></rect>
        <g id="process_docs" transform="translate(5.000000, 7.000000)">
            <g id="Group" opacity="0.5" transform="translate(10.059382, 8.557007)" fill="url(#linearGradient-1)" fill-rule="nonzero">
                <rect id="Rectangle" x="0.00979809976" y="0.0137173397" width="29.292399" height="39.3622328"></rect>
            </g>
            <rect id="Rectangle" fill="#F2F2F2" fill-rule="nonzero" x="10.4506532" y="9.10504751" width="28.3772565" height="37.9891924"></rect>
            <rect id="Rectangle" fill="#E0E0E0" fill-rule="nonzero" x="12.6630641" y="10.7067102" width="9.76413302" height="1"></rect>
            <rect id="Rectangle" fill="#2170F2" fill-rule="nonzero" opacity="0.7" x="12.6630641" y="12.0797506" width="9.76413302" height="1"></rect>
            <rect id="Rectangle" fill="#E0E0E0" fill-rule="nonzero" x="23.8766627" y="10.7067102" width="9.76413302" height="1"></rect>
            <rect id="Rectangle" fill="#E0E0E0" fill-rule="nonzero" x="25.4019002" y="19.4035036" width="9.76413302" height="1"></rect>
            <rect id="Rectangle" fill="#E0E0E0" fill-rule="nonzero" x="25.6311758" y="20.2422209" width="9.76413302" height="1"></rect>
            <rect id="Rectangle" fill="#E0E0E0" fill-rule="nonzero" x="26.0890736" y="21.0815914" width="9.76413302" height="1"></rect>
            <rect id="Rectangle" fill="#E0E0E0" fill-rule="nonzero" x="25.4019002" y="32.905285" width="9.76413302" height="1"></rect>
            <rect id="Rectangle" fill="#E0E0E0" fill-rule="nonzero" x="25.6311758" y="33.7446556" width="9.76413302" height="1"></rect>
            <rect id="Rectangle" fill="#E0E0E0" fill-rule="nonzero" x="26.0890736" y="34.5833729" width="9.76413302" height="1"></rect>
            <g id="Group" opacity="0.5" transform="translate(12.737530, 16.264846)" fill="url(#linearGradient-2)" fill-rule="nonzero">
                <rect id="Rectangle" x="0.00195961995" y="0.0104513064" width="10.374228" height="10.5270784"></rect>
            </g>
            <rect id="Rectangle" fill="#F5F5F5" fill-rule="nonzero" x="12.80481" y="16.5045724" width="10.2109264" height="10.0691805"></rect>
            <g id="Group" opacity="0.5" transform="translate(13.129454, 17.114014)" fill="url(#linearGradient-3)" fill-rule="nonzero">
                <rect id="Rectangle" x="0.0352731591" y="0.000653206651" width="9.52375297" height="6.56015439"></rect>
            </g>
            <rect id="e1f34465-d008-41db-868b-e00503fb87b3" fill="#FFFFFF" fill-rule="nonzero" x="13.2300475" y="17.1910926" width="9.39245843" height="6.33153207"></rect>
            <g id="Clipped" transform="translate(24.887173, 21.098575)">
                <mask id="mask-5" fill="white">
                    <use xlink:href="#path-4"></use>
                </mask>
                <g id="cf34cfb5-9399-4bae-9cea-d47bbef6cb3a"></g>
                <g id="Group" mask="url(#mask-5)" fill="#2170F2" fill-rule="nonzero" opacity="0.4">
                    <g transform="translate(-12.802850, -3.723278)">
                        <polygon id="Path" points="0.349465558 5.91870546 2.71472684 2.25682898 3.70629454 3.85849169 5.84228029 1.64673397 7.67321853 3.85849169 9.27488124 0.578741093 13.3940024 7.13889549 0.0444180523 6.68099762"></polygon>
                        <circle id="Oval" cx="2.1804038" cy="0.730938242" r="1"></circle>
                    </g>
                </g>
            </g>
            <g id="Group" opacity="0.5" transform="translate(12.737530, 29.720903)" fill="url(#linearGradient-2)" fill-rule="nonzero">
                <rect id="Rectangle" x="0.00195961995" y="0.0568289786" width="10.374228" height="10.5270784"></rect>
            </g>
            <rect id="Rectangle" fill="#F5F5F5" fill-rule="nonzero" x="12.80481" y="30.0063539" width="10.2109264" height="10.0691805"></rect>
            <g id="Group" opacity="0.5" transform="translate(13.129454, 30.570071)" fill="url(#linearGradient-3)" fill-rule="nonzero">
                <rect id="Rectangle" x="0.0352731591" y="0.0470308789" width="9.52375297" height="6.56015439"></rect>
            </g>
            <rect id="c95ac4f6-be4d-44a3-92c2-5c8066e2b531" fill="#FFFFFF" fill-rule="nonzero" x="13.2300475" y="30.6928741" width="9.39245843" height="6.33153207"></rect>
            <g id="Clipped" transform="translate(24.887173, 34.619952)">
                <mask id="mask-7" fill="white">
                    <use xlink:href="#path-6"></use>
                </mask>
                <g id="7439734d-5f7c-428f-88ce-e68b86a45c07"></g>
                <g id="Group" mask="url(#mask-7)" fill="#BDBDBD" fill-rule="nonzero" opacity="0.4">
                    <g transform="translate(-12.802850, -3.723278)">
                        <polygon id="Path" points="0.349465558 5.89910926 2.71472684 2.23723278 3.70629454 3.83954869 5.84228029 1.62713777 7.67321853 3.83954869 9.27488124 0.559144893 13.3940024 7.11929929 0.0444180523 6.66205463"></polygon>
                        <circle id="Oval" cx="2.1804038" cy="0.711995249" r="1"></circle>
                    </g>
                </g>
            </g>
            <g id="Group" opacity="0.5" transform="translate(14.305226, 6.597387)" fill="url(#linearGradient-8)" fill-rule="nonzero">
                <polygon id="Rectangle" transform="translate(18.265889, 22.186973) rotate(-78.760000) translate(-18.265889, -22.186973) " points="-1.41522772 7.54077331 37.9470051 7.54077331 37.9470051 36.8331724 -1.41522772 36.8331724"></polygon>
            </g>
            <polygon id="Rectangle" fill="#FFFFFF" fill-rule="nonzero" transform="translate(32.525974, 28.620052) rotate(-78.760000) translate(-32.525974, -28.620052) " points="13.5313774 14.4314238 51.5205698 14.4314238 51.5205698 42.8086803 13.5313774 42.8086803"></polygon>
            <polygon id="Rectangle" fill="#E0E0E0" fill-rule="nonzero" transform="translate(33.840163, 11.458240) rotate(11.240000) translate(-33.840163, -11.458240) " points="23.7706555 11.3057163 43.9096697 11.3057163 43.9096697 11.6107638 23.7706555 11.6107638"></polygon>
            <polygon id="Rectangle" fill="#E0E0E0" fill-rule="nonzero" transform="translate(28.219747, 39.740821) rotate(11.240000) translate(-28.219747, -39.740821) " points="18.1502401 39.5882969 38.2892543 39.5882969 38.2892543 39.8933444 18.1502401 39.8933444"></polygon>
            <polygon id="Rectangle" fill="#E0E0E0" fill-rule="nonzero" transform="translate(25.632512, 41.014966) rotate(11.240000) translate(-25.632512, -41.014966) " points="17.8515142 40.8624426 33.4135095 40.8624426 33.4135095 41.1674901 17.8515142 41.1674901"></polygon>
            <polygon id="Rectangle" fill="#2170F2" fill-rule="nonzero" opacity="0.7" transform="translate(20.501926, 41.784713) rotate(11.240000) translate(-20.501926, -41.784713) " points="17.6033218 41.6321897 23.4005308 41.6321897 23.4005308 41.9372372 17.6033218 41.9372372"></polygon>
            <polygon id="Rectangle" fill="#2170F2" fill-rule="nonzero" opacity="0.7" transform="translate(28.559253, 12.198037) rotate(11.240000) translate(-28.559253, -12.198037) " points="23.5246632 12.0455128 33.5938437 12.0455128 33.5938437 12.3505603 23.5246632 12.3505603"></polygon>
            <polygon id="Rectangle" fill="#E0E0E0" fill-rule="nonzero" transform="translate(32.183512, 14.706769) rotate(11.240000) translate(-32.183512, -14.706769) " points="23.1058994 14.554245 41.2611251 14.554245 41.2611251 14.8592925 23.1058994 14.8592925"></polygon>
            <polygon id="Rectangle" fill="#3AD29F" fill-rule="nonzero" opacity="0.7" transform="translate(25.107359, 15.089743) rotate(11.240000) translate(-25.107359, -15.089743) " points="22.8952743 14.9372191 27.319443 14.9372191 27.319443 15.2422666 22.8952743 15.2422666"></polygon>
            <polygon id="Rectangle" fill="#E0E0E0" fill-rule="nonzero" transform="translate(32.472417, 18.342198) rotate(11.240000) translate(-32.472417, -18.342198) " points="22.4029103 18.1896739 42.5419245 18.1896739 42.5419245 18.4947214 22.4029103 18.4947214"></polygon>
            <g id="Group" opacity="0.5" transform="translate(22.339667, 23.450119)" fill="url(#linearGradient-9)" fill-rule="nonzero">
                <polygon id="Rectangle" transform="translate(9.881403, 6.898187) rotate(-78.760000) translate(-9.881403, -6.898187) " points="4.6942888 -2.14121367 15.0685168 -2.14121367 15.0685168 15.9375868 4.6942888 15.9375868"></polygon>
            </g>
            <polygon id="Rectangle" fill="#FFFFFF" fill-rule="nonzero" transform="translate(32.231696, 30.310980) rotate(11.240000) translate(-32.231696, -30.310980) " points="23.3066065 25.238177 41.1567847 25.238177 41.1567847 35.3837827 23.3066065 35.3837827"></polygon>
            <polygon id="Rectangle" fill="#E0E0E0" fill-rule="nonzero" transform="translate(32.130424, 20.063607) rotate(11.240000) translate(-32.130424, -20.063607) " points="22.0609166 19.9110833 42.1999308 19.9110833 42.1999308 20.2161308 22.0609166 20.2161308"></polygon>
            <polygon id="Rectangle" fill="#2170F2" fill-rule="nonzero" transform="translate(26.396298, 29.151314) rotate(11.240000) translate(-26.396298, -29.151314) " points="25.2900925 25.4515518 27.5025034 25.4515518 27.5025034 32.8510767 25.2900925 32.8510767"></polygon>
            <polygon id="Rectangle" fill="#3AD29F" fill-rule="nonzero" transform="translate(30.048878, 31.121797) rotate(11.240000) translate(-30.048878, -31.121797) " points="28.9426725 28.6425507 31.1550834 28.6425507 31.1550834 33.6010424 28.9426725 33.6010424"></polygon>
            <polygon id="Rectangle" fill="#F55F44" fill-rule="nonzero" transform="translate(33.717055, 33.017277) rotate(11.240000) translate(-33.717055, -33.017277) " points="32.6108493 31.6824495 34.8232602 31.6824495 34.8232602 34.352105 32.6108493 34.352105"></polygon>
            <polygon id="Rectangle" fill="#FDD835" fill-rule="nonzero" transform="translate(37.875327, 32.443883) rotate(11.240000) translate(-37.875327, -32.443883) " points="36.7691218 29.7356887 38.9815328 29.7356887 38.9815328 35.1520783 36.7691218 35.1520783"></polygon>
            <path d="M45.8191805,22.9282067 C43.9177625,20.9505772 41.298804,19.8238412 38.5554517,19.803184 C35.8120995,19.7825268 33.1764704,20.8696962 31.2454869,22.8184679 C27.3915677,26.7037411 27.326247,33.0300475 31.0959026,36.9976247 C34.5152616,40.5966972 40.0316311,41.2054572 44.1535036,38.4385986 L51.5144893,46.0948337 C51.7042672,46.2921211 52.0180281,46.2982618 52.21538,46.1085511 L54.0495843,44.3448931 C54.2468717,44.1551152 54.2530124,43.8413543 54.0633017,43.6440024 L46.7042755,35.9884204 C49.6168703,31.9968268 49.2436933,26.4903324 45.8191805,22.9282067 Z M43.5264252,35.237886 C40.626721,38.0255575 36.0162079,37.9347926 33.228467,35.0351551 C30.4407261,32.1355176 30.5313806,27.5250024 33.4309514,24.7371921 C36.3305221,21.9493817 40.9410395,22.0399259 43.7289192,24.9394299 C45.0677918,26.3319097 45.798636,28.1992416 45.7606606,30.130598 C45.7226852,32.0619544 44.9190011,33.8991134 43.5264252,35.237886 L43.5264252,35.237886 Z" id="Shape" fill="url(#linearGradient-10)" fill-rule="nonzero"></path>
            <path d="M33.0842637,27.9611639 C32.2651425,27.9611639 32.2638361,29.2342637 33.0842637,29.2342637 C33.9046912,29.2342637 33.9046912,27.9611639 33.0842637,27.9611639 Z" id="Path" fill="url(#linearGradient-11)" fill-rule="nonzero"></path>
            <path d="M38.793943,23.8831948 C36.5893705,23.8335511 34.5833729,24.9394299 33.5166865,26.6090261 C33.1685273,27.1538005 34.156829,27.6352138 34.5030285,27.0930523 C35.3861639,25.710867 37.0642518,24.8329572 38.8795131,24.8786817 C40.7816508,24.9263658 42.5126485,26.0146081 43.4290974,27.5248219 C43.7766033,28.0976841 44.6878266,27.5770784 44.3435867,27.0074822 C43.2292162,25.1785036 41.0710214,23.9374109 38.793943,23.8831948 Z" id="Path" fill="url(#linearGradient-12)" fill-rule="nonzero"></path>
            <path d="M46.6180523,22.5415083 C44.7166343,20.5638789 42.0976757,19.4371429 39.3543235,19.4164857 C36.6109712,19.3958285 33.9753421,20.4829978 32.0443587,22.4317696 C28.1904394,26.3170428 28.1251188,32.6433492 31.8947743,36.6109264 C35.3143034,40.2097885 40.8306563,40.8182706 44.9523753,38.051247 L52.3127078,45.7081354 C52.5024857,45.9054228 52.8162466,45.9115635 53.0135986,45.7218527 L54.8478029,43.9581948 C55.0450902,43.7684169 55.0512309,43.454656 54.8615202,43.257304 L47.5005344,35.6010689 C50.4134582,31.6102205 50.0413958,26.1041919 46.6180523,22.5415083 L46.6180523,22.5415083 Z M44.3252969,34.845962 C41.4255927,37.6336335 36.8150797,37.5428686 34.0273387,34.6432311 C31.2395978,31.7435936 31.3302524,27.1330784 34.2298231,24.3452681 C37.1293938,21.5574577 41.7399112,21.6480019 44.527791,24.5475059 C45.8666635,25.9399858 46.5975078,27.8073176 46.5595323,29.738674 C46.5215569,31.6700304 45.7178729,33.5071895 44.3252969,34.845962 Z" id="Shape" fill="#2170F2" fill-rule="nonzero"></path>
            <path d="M33.8831354,27.5738124 C33.0640143,27.5738124 33.0627078,28.8469121 33.8831354,28.8469121 C34.7035629,28.8469121 34.7035629,27.5738124 33.8831354,27.5738124 Z" id="Path" fill="#2170F2" fill-rule="nonzero"></path>
            <path d="M39.5928147,23.4964964 C37.3882423,23.4468527 35.3822447,24.5527316 34.3155582,26.2223278 C33.967399,26.7671021 34.9557007,27.2485154 35.3019002,26.7063539 C36.1850356,25.3241686 37.8631235,24.4462589 39.6783848,24.4919834 C41.5805226,24.5396675 43.3115202,25.6279097 44.2279691,27.1381235 C44.5754751,27.7109857 45.4866983,27.19038 45.1424584,26.6207838 C44.0261283,24.7865796 41.8705463,23.5454869 39.5928147,23.4964964 Z" id="Path" fill="#2170F2" fill-rule="nonzero"></path>
            <rect id="Rectangle" fill="#47E6B1" fill-rule="nonzero" x="7.93319477" y="43.4323634" width="1" height="1.2966152"></rect>
            <polygon id="Rectangle" fill="#47E6B1" fill-rule="nonzero" transform="translate(8.047833, 44.080344) rotate(90.000000) translate(-8.047833, -44.080344) " points="7.93352138 43.4320368 8.16214371 43.4320368 8.16214371 44.728652 7.93352138 44.728652"></polygon>
            <path d="M37.3549287,0.584619952 C37.2242568,0.52775184 37.1570769,0.381867592 37.1988124,0.245605701 C37.2020083,0.235424472 37.2039818,0.224899221 37.2046912,0.214251781 L37.2046912,0.214251781 C37.2089438,0.152076463 37.1717134,0.0945353862 37.113256,0.0729348384 C37.0547985,0.0513342906 36.9890981,0.0708415091 36.9519002,0.12084323 L36.9519002,0.12084323 C36.9456153,0.129340707 36.9403534,0.138549071 36.9362233,0.14827791 C36.8793552,0.278949891 36.7334709,0.346129728 36.597209,0.304394299 C36.5870278,0.301198382 36.5765025,0.299224898 36.5658551,0.298515439 L36.5658551,0.298515439 C36.5031774,0.293989903 36.4451222,0.331652715 36.4237077,0.390732304 C36.4022933,0.449811894 36.4227325,0.515926435 36.473753,0.552612827 L36.473753,0.552612827 C36.4822504,0.558897787 36.4914588,0.56415971 36.5011876,0.568289786 C36.6318596,0.625157899 36.6990395,0.771042147 36.657304,0.907304038 C36.6541081,0.917485267 36.6521346,0.928010517 36.6514252,0.938657957 L36.6514252,0.938657957 C36.6464066,1.00172435 36.6841759,1.06036072 36.7436727,1.08187107 C36.8031694,1.10338142 36.8697037,1.08245483 36.9061758,1.0307601 L36.9061758,1.0307601 C36.9124607,1.02226262 36.9177227,1.01305425 36.9218527,1.00332542 C36.9787208,0.872653434 37.1246051,0.805473597 37.260867,0.847209026 C37.2710482,0.850404943 37.2815735,0.852378427 37.2922209,0.853087886 L37.2922209,0.853087886 C37.3543962,0.857340437 37.4119373,0.820110062 37.4335378,0.761652635 C37.4551384,0.703195209 37.4356312,0.637494792 37.3856295,0.600296912 L37.3856295,0.600296912 C37.3761103,0.593776631 37.3657921,0.588507754 37.3549287,0.584619952 L37.3549287,0.584619952 Z" id="Path" fill="#4D8AF0" fill-rule="nonzero"></path>
            <path d="M8.97767221,10.1965558 C8.84700023,10.1396877 8.77982039,9.99380346 8.82155582,9.85754157 C8.82475174,9.84736034 8.82672522,9.83683509 8.82743468,9.82618765 L8.82743468,9.82618765 C8.83168723,9.76401233 8.79445686,9.70647125 8.73599943,9.68487071 C8.677542,9.66327016 8.61184159,9.68277738 8.57464371,9.7327791 L8.57464371,9.7327791 C8.56835875,9.74127657 8.56309682,9.75048494 8.55896675,9.76021378 C8.50209863,9.89088576 8.35621439,9.9580656 8.21995249,9.91633017 C8.20977127,9.91313425 8.19924601,9.91116077 8.18859857,9.91045131 L8.18859857,9.91045131 C8.12642326,9.90619876 8.06888218,9.94342913 8.04728163,10.0018866 C8.02568108,10.060344 8.0451883,10.1260444 8.09519002,10.1632423 L8.09519002,10.1632423 C8.1036875,10.1695272 8.11289586,10.1747892 8.1226247,10.1789192 C8.25329668,10.2357874 8.32047652,10.3816716 8.27874109,10.5179335 C8.27554518,10.5281147 8.27357169,10.53864 8.27286223,10.5492874 L8.27286223,10.5492874 C8.26860968,10.6114627 8.30584006,10.6690038 8.36429748,10.6906044 C8.42275491,10.7122049 8.48845533,10.6926977 8.52565321,10.642696 L8.52565321,10.642696 C8.53193817,10.6341985 8.53720009,10.6249901 8.54133017,10.6152613 C8.59819828,10.4845893 8.74408253,10.4174095 8.88034442,10.4591449 C8.89052565,10.4623408 8.9010509,10.4643143 8.91169834,10.4650238 L8.91169834,10.4650238 C8.97387366,10.4692763 9.03141473,10.4320459 9.05301528,10.3735885 C9.07461583,10.3151311 9.05510861,10.2494307 9.00510689,10.2122328 L9.00510689,10.2122328 C8.99660941,10.2059478 8.98740105,10.2006859 8.97767221,10.1965558 L8.97767221,10.1965558 Z" id="Path" fill="#FDD835" fill-rule="nonzero"></path>
            <path d="M49.3314727,49.8631829 C49.2008007,49.8063148 49.1336209,49.6604305 49.1753563,49.5241686 C49.1785522,49.5139874 49.1805257,49.5034622 49.1812352,49.4928147 L49.1812352,49.4928147 C49.1854877,49.4306394 49.1482573,49.3730983 49.0897999,49.3514978 C49.0313425,49.3298972 48.9656421,49.3494045 48.9284442,49.3994062 L48.9284442,49.3994062 C48.9221592,49.4079037 48.9168973,49.417112 48.9127672,49.4268409 C48.8558991,49.5575128 48.7100149,49.6246927 48.573753,49.5829572 C48.5635717,49.5797613 48.5530465,49.5777878 48.542399,49.5770784 L48.542399,49.5770784 C48.4802237,49.5728258 48.4226827,49.6100562 48.4010821,49.6685136 C48.3794816,49.7269711 48.3989888,49.7926715 48.4489905,49.8298694 L48.4489905,49.8298694 C48.457488,49.8361543 48.4666963,49.8414162 48.4764252,49.8455463 C48.6070972,49.9024144 48.674277,50.0482987 48.6325416,50.1845606 C48.6293457,50.1947418 48.6273722,50.205267 48.6266627,50.2159145 L48.6266627,50.2159145 C48.6224102,50.2780898 48.6596405,50.3356309 48.718098,50.3572314 C48.7765554,50.378832 48.8422558,50.3593248 48.8794537,50.309323 L48.8794537,50.309323 C48.8857386,50.3008256 48.8910006,50.2916172 48.8951306,50.2818884 C48.9519988,50.1512164 49.097883,50.0840365 49.2341449,50.125772 C49.2443261,50.1289679 49.2548514,50.1309414 49.2654988,50.1316508 L49.2654988,50.1316508 C49.3276741,50.1359034 49.3852152,50.098673 49.4068158,50.0402156 C49.4284163,49.9817582 49.4089091,49.9160577 49.3589074,49.8788599 L49.3589074,49.8788599 C49.3504099,49.8725749 49.3412015,49.867313 49.3314727,49.8631829 Z" id="Path" fill="#FDD835" fill-rule="nonzero"></path>
            <circle id="Oval" fill="#F55F44" fill-rule="nonzero" cx="20.9777316" cy="4.98592637" r="1"></circle>
            <circle id="Oval" fill="#F55F44" fill-rule="nonzero" cx="53.7791568" cy="10.7067102" r="1"></circle>
            <circle id="Oval" fill="#4D8AF0" fill-rule="nonzero" cx="51.1859264" cy="24.361342" r="1"></circle>
            <circle id="Oval" fill="#47E6B1" fill-rule="nonzero" opacity="0.5" cx="0.457897862" cy="1.93414489" r="1"></circle>
        </g>
    </g>
</svg>