<?xml version="1.0" encoding="UTF-8"?>
<svg width="64px" height="64px" viewBox="0 0 64 64" version="1.1" xmlns="http://www.w3.org/2000/svg" xmlns:xlink="http://www.w3.org/1999/xlink">
    <!-- Generator: Sketch 60 (88103) - https://sketch.com -->
    <title>Artboard</title>
    <desc>Created with Sketch.</desc>
    <defs>
        <linearGradient x1="50%" y1="100%" x2="50%" y2="0%" id="linearGradient-1">
            <stop stop-color="#808080" stop-opacity="0.25" offset="0%"></stop>
            <stop stop-color="#808080" stop-opacity="0.12" offset="54%"></stop>
            <stop stop-color="#808080" stop-opacity="0.1" offset="100%"></stop>
        </linearGradient>
        <linearGradient x1="50%" y1="100%" x2="50%" y2="0%" id="linearGradient-2">
            <stop stop-color="#808080" stop-opacity="0.25" offset="0%"></stop>
            <stop stop-color="#808080" stop-opacity="0.12" offset="54%"></stop>
            <stop stop-color="#808080" stop-opacity="0.1" offset="100%"></stop>
        </linearGradient>
        <linearGradient x1="50%" y1="100%" x2="50%" y2="0%" id="linearGradient-3">
            <stop stop-color="#808080" stop-opacity="0.25" offset="0%"></stop>
            <stop stop-color="#808080" stop-opacity="0.12" offset="54%"></stop>
            <stop stop-color="#808080" stop-opacity="0.1" offset="100%"></stop>
        </linearGradient>
        <rect id="path-4" x="0.0410451306" y="0.0547268409" width="10.9294062" height="7.36760095"></rect>
        <rect id="path-6" x="0.0410451306" y="0.0319239905" width="10.9294062" height="7.36760095"></rect>
        <linearGradient x1="0%" y1="50%" x2="100%" y2="50%" id="linearGradient-8">
            <stop stop-color="#808080" stop-opacity="0.25" offset="0%"></stop>
            <stop stop-color="#808080" stop-opacity="0.12" offset="54%"></stop>
            <stop stop-color="#808080" stop-opacity="0.1" offset="100%"></stop>
        </linearGradient>
        <linearGradient x1="0.00629643622%" y1="50.0018066%" x2="100.006296%" y2="50.0018066%" id="linearGradient-9">
            <stop stop-color="#808080" stop-opacity="0.25" offset="0%"></stop>
            <stop stop-color="#808080" stop-opacity="0.12" offset="54%"></stop>
            <stop stop-color="#808080" stop-opacity="0.1" offset="100%"></stop>
        </linearGradient>
        <linearGradient x1="50.0002221%" y1="100.000449%" x2="50.0002221%" y2="0.00140337287%" id="linearGradient-10">
            <stop stop-color="#B3B3B3" stop-opacity="0.25" offset="0%"></stop>
            <stop stop-color="#B3B3B3" stop-opacity="0.1" offset="54%"></stop>
            <stop stop-color="#B3B3B3" stop-opacity="0.05" offset="100%"></stop>
        </linearGradient>
        <linearGradient x1="49.9800916%" y1="99.9486916%" x2="49.9800916%" y2="0%" id="linearGradient-11">
            <stop stop-color="#000000" stop-opacity="0.12" offset="0%"></stop>
            <stop stop-color="#000000" stop-opacity="0.09" offset="55%"></stop>
            <stop stop-color="#000000" stop-opacity="0.02" offset="100%"></stop>
        </linearGradient>
        <linearGradient x1="49.9885247%" y1="100.005627%" x2="49.9885247%" y2="0.0076852476%" id="linearGradient-12">
            <stop stop-color="#000000" stop-opacity="0.12" offset="0%"></stop>
            <stop stop-color="#000000" stop-opacity="0.09" offset="55%"></stop>
            <stop stop-color="#000000" stop-opacity="0.02" offset="100%"></stop>
        </linearGradient>
    </defs>
    <g id="Artboard" stroke="none" stroke-width="1" fill="none" fill-rule="evenodd">
        <rect fill="#FFFFFF" opacity="0" x="0" y="0" width="64" height="64"></rect>
        <g id="process_docs" transform="translate(0.000000, 2.000000)">
            <g id="Group" opacity="0.5" transform="translate(11.705463, 9.957245)" fill="url(#linearGradient-1)" fill-rule="nonzero">
                <rect id="Rectangle" x="0.0114014252" y="0.0159619952" width="34.0857007" height="45.8033254"></rect>
            </g>
            <rect id="Rectangle" fill="#F2F2F2" fill-rule="nonzero" x="12.1607601" y="10.5949644" width="33.0208076" height="44.2056057"></rect>
            <rect id="Rectangle" fill="#E0E0E0" fill-rule="nonzero" x="14.7352019" y="12.4587173" width="11.3619002" height="1"></rect>
            <rect id="Rectangle" fill="#2170F2" fill-rule="nonzero" opacity="0.7" x="14.7352019" y="14.0564371" width="11.3619002" height="1"></rect>
            <rect id="Rectangle" fill="#E0E0E0" fill-rule="nonzero" x="27.783753" y="12.4587173" width="11.3619002" height="1"></rect>
            <rect id="Rectangle" fill="#E0E0E0" fill-rule="nonzero" x="29.5585748" y="22.5786223" width="11.3619002" height="1"></rect>
            <rect id="Rectangle" fill="#E0E0E0" fill-rule="nonzero" x="29.8253682" y="23.5545843" width="11.3619002" height="1"></rect>
            <rect id="Rectangle" fill="#E0E0E0" fill-rule="nonzero" x="30.3581948" y="24.5313064" width="11.3619002" height="1"></rect>
            <rect id="Rectangle" fill="#E0E0E0" fill-rule="nonzero" x="29.5585748" y="38.2897862" width="11.3619002" height="1"></rect>
            <rect id="Rectangle" fill="#E0E0E0" fill-rule="nonzero" x="29.8253682" y="39.2665083" width="11.3619002" height="1"></rect>
            <rect id="Rectangle" fill="#E0E0E0" fill-rule="nonzero" x="30.3581948" y="40.2424703" width="11.3619002" height="1"></rect>
            <g id="Group" opacity="0.5" transform="translate(14.821853, 18.926366)" fill="url(#linearGradient-2)" fill-rule="nonzero">
                <rect id="Rectangle" x="0.00228028504" y="0.0121615202" width="12.071829" height="12.2496912"></rect>
            </g>
            <rect id="Rectangle" fill="#F5F5F5" fill-rule="nonzero" x="14.9001425" y="19.2053207" width="11.8818052" height="11.7168646"></rect>
            <g id="Group" opacity="0.5" transform="translate(15.277910, 19.914489)" fill="url(#linearGradient-3)" fill-rule="nonzero">
                <rect id="Rectangle" x="0.0410451306" y="0.000760095012" width="11.0821853" height="7.6336342"></rect>
            </g>
            <rect id="e1f34465-d008-41db-868b-e00503fb87b3" fill="#FFFFFF" fill-rule="nonzero" x="15.3949644" y="20.0041805" width="10.9294062" height="7.36760095"></rect>
            <g id="Clipped" transform="translate(28.959620, 24.551069)">
                <mask id="mask-5" fill="white">
                    <use xlink:href="#path-4"></use>
                </mask>
                <g id="cf34cfb5-9399-4bae-9cea-d47bbef6cb3a"></g>
                <g id="Group" mask="url(#mask-5)" fill="#2170F2" fill-rule="nonzero" opacity="0.4">
                    <g transform="translate(-14.897862, -4.332542)">
                        <polygon id="Path" points="0.406650831 6.8872209 3.15895487 2.62612827 4.3127791 4.48988124 6.79828979 1.91619952 8.9288361 4.48988124 10.7925891 0.673444181 15.5857482 8.30707838 0.0516864608 7.77425178"></polygon>
                        <circle id="Oval" cx="2.53719715" cy="0.850546318" r="1"></circle>
                    </g>
                </g>
            </g>
            <g id="Group" opacity="0.5" transform="translate(14.821853, 34.584323)" fill="url(#linearGradient-2)" fill-rule="nonzero">
                <rect id="Rectangle" x="0.00228028504" y="0.066128266" width="12.071829" height="12.2496912"></rect>
            </g>
            <rect id="Rectangle" fill="#F5F5F5" fill-rule="nonzero" x="14.9001425" y="34.9164846" width="11.8818052" height="11.7168646"></rect>
            <g id="Group" opacity="0.5" transform="translate(15.277910, 35.572447)" fill="url(#linearGradient-3)" fill-rule="nonzero">
                <rect id="Rectangle" x="0.0410451306" y="0.0547268409" width="11.0821853" height="7.6336342"></rect>
            </g>
            <rect id="c95ac4f6-be4d-44a3-92c2-5c8066e2b531" fill="#FFFFFF" fill-rule="nonzero" x="15.3949644" y="35.7153444" width="10.9294062" height="7.36760095"></rect>
            <g id="Clipped" transform="translate(28.959620, 40.285036)">
                <mask id="mask-7" fill="white">
                    <use xlink:href="#path-6"></use>
                </mask>
                <g id="7439734d-5f7c-428f-88ce-e68b86a45c07"></g>
                <g id="Group" mask="url(#mask-7)" fill="#BDBDBD" fill-rule="nonzero" opacity="0.4">
                    <g transform="translate(-14.897862, -4.332542)">
                        <polygon id="Path" points="0.406650831 6.86441805 3.15895487 2.60332542 4.3127791 4.46783848 6.79828979 1.89339667 8.9288361 4.46783848 10.7925891 0.65064133 15.5857482 8.28427553 0.0516864608 7.75220903"></polygon>
                        <circle id="Oval" cx="2.53719715" cy="0.828503563" r="1"></circle>
                    </g>
                </g>
            </g>
            <g id="Group" opacity="0.5" transform="translate(16.646081, 7.676960)" fill="url(#linearGradient-8)" fill-rule="nonzero">
                <polygon id="Rectangle" transform="translate(21.254852, 25.817568) rotate(-78.760000) translate(-21.254852, -25.817568) " points="-1.64681043 8.77471804 44.156515 8.77471804 44.156515 42.8604187 -1.64681043 42.8604187"></polygon>
            </g>
            <polygon id="Rectangle" fill="#FFFFFF" fill-rule="nonzero" transform="translate(37.848406, 33.303333) rotate(-78.760000) translate(-37.848406, -33.303333) " points="15.7456028 16.7929295 59.9512085 16.7929295 59.9512085 49.8137371 15.7456028 49.8137371"></polygon>
            <polygon id="Rectangle" fill="#E0E0E0" fill-rule="nonzero" transform="translate(39.377644, 13.333225) rotate(11.240000) translate(-39.377644, -13.333225) " points="27.6603991 13.1557426 51.0948884 13.1557426 51.0948884 13.510707 27.6603991 13.510707"></polygon>
            <polygon id="Rectangle" fill="#E0E0E0" fill-rule="nonzero" transform="translate(32.837524, 46.243864) rotate(11.240000) translate(-32.837524, -46.243864) " points="21.1202794 46.0663819 44.5547687 46.0663819 44.5547687 46.4213462 21.1202794 46.4213462"></polygon>
            <polygon id="Rectangle" fill="#E0E0E0" fill-rule="nonzero" transform="translate(29.826923, 47.726506) rotate(11.240000) translate(-29.826923, -47.726506) " points="20.7726711 47.5490241 38.8811746 47.5490241 38.8811746 47.9039885 20.7726711 47.9039885"></polygon>
            <polygon id="Rectangle" fill="#2170F2" fill-rule="nonzero" opacity="0.7" transform="translate(23.856787, 48.622212) rotate(11.240000) translate(-23.856787, -48.622212) " points="20.4838653 48.4447298 27.2297086 48.4447298 27.2297086 48.7996942 20.4838653 48.7996942"></polygon>
            <polygon id="Rectangle" fill="#2170F2" fill-rule="nonzero" opacity="0.7" transform="translate(33.232586, 14.194079) rotate(11.240000) translate(-33.232586, -14.194079) " points="27.3741535 14.0165967 39.0910181 14.0165967 39.0910181 14.371561 27.3741535 14.371561"></polygon>
            <polygon id="Rectangle" fill="#E0E0E0" fill-rule="nonzero" transform="translate(37.449905, 17.113331) rotate(11.240000) translate(-37.449905, -17.113331) " points="26.8868648 16.9358487 48.0129455 16.9358487 48.0129455 17.290813 26.8868648 17.290813"></polygon>
            <polygon id="Rectangle" fill="#3AD29F" fill-rule="nonzero" opacity="0.7" transform="translate(29.215836, 17.558973) rotate(11.240000) translate(-29.215836, -17.558973) " points="26.6417738 17.3814913 31.7898973 17.3814913 31.7898973 17.7364556 26.6417738 17.7364556"></polygon>
            <polygon id="Rectangle" fill="#E0E0E0" fill-rule="nonzero" transform="translate(37.786086, 21.343648) rotate(11.240000) translate(-37.786086, -21.343648) " points="26.0688411 21.166166 49.5033304 21.166166 49.5033304 21.5211303 26.0688411 21.5211303"></polygon>
            <g id="Group" opacity="0.5" transform="translate(25.995249, 27.287411)" fill="url(#linearGradient-9)" fill-rule="nonzero">
                <polygon id="Rectangle" transform="translate(11.498360, 8.026981) rotate(-78.760000) translate(-11.498360, -8.026981) " points="5.46244515 -2.49159409 17.5342741 -2.49159409 17.5342741 18.5455556 5.46244515 18.5455556"></polygon>
            </g>
            <polygon id="Rectangle" fill="#FFFFFF" fill-rule="nonzero" transform="translate(37.505973, 35.270958) rotate(11.240000) translate(-37.505973, -35.270958) " points="27.1204149 29.3680606 47.8915313 29.3680606 47.8915313 41.1738563 27.1204149 41.1738563"></polygon>
            <polygon id="Rectangle" fill="#E0E0E0" fill-rule="nonzero" transform="translate(37.388129, 23.346743) rotate(11.240000) translate(-37.388129, -23.346743) " points="25.6708848 23.1692605 49.1053741 23.1692605 49.1053741 23.5242249 25.6708848 23.5242249"></polygon>
            <polygon id="Rectangle" fill="#2170F2" fill-rule="nonzero" transform="translate(30.715692, 33.921529) rotate(11.240000) translate(-30.715692, -33.921529) " points="29.4284712 29.6163511 32.002913 29.6163511 32.002913 38.2267074 29.4284712 38.2267074"></polygon>
            <polygon id="Rectangle" fill="#3AD29F" fill-rule="nonzero" transform="translate(34.965967, 36.214454) rotate(11.240000) translate(-34.965967, -36.214454) " points="33.6787462 33.3295136 36.253188 33.3295136 36.253188 39.0993948 33.6787462 39.0993948"></polygon>
            <polygon id="Rectangle" fill="#F55F44" fill-rule="nonzero" transform="translate(39.234391, 38.420104) rotate(11.240000) translate(-39.234391, -38.420104) " points="37.94717 36.8668503 40.5216119 36.8668503 40.5216119 39.9733586 37.94717 39.9733586"></polygon>
            <polygon id="Rectangle" fill="#FDD835" fill-rule="nonzero" transform="translate(44.073108, 37.752883) rotate(11.240000) translate(-44.073108, -37.752883) " points="42.7858872 34.6015287 45.360329 34.6015287 45.360329 40.9042365 42.7858872 40.9042365"></polygon>
            <path d="M53.3168646,26.680095 C51.1043055,24.3788535 48.0567901,23.0677425 44.8645257,23.043705 C41.6722612,23.0196675 38.6053474,24.2847374 36.3583848,26.552399 C31.8738242,31.0734442 31.7978147,38.4349644 36.184323,43.0517815 C40.1632135,47.2397931 46.5822617,47.9481683 51.3786223,44.7285511 L59.944133,53.6376247 C60.1649655,53.8671955 60.5300691,53.874341 60.759715,53.6535867 L62.8940618,51.6013302 C63.1236325,51.3804977 63.1307781,51.0153941 62.9100238,50.7857482 L54.3467933,41.8774347 C57.7359945,37.2326712 57.3017522,30.8251141 53.3168646,26.680095 Z M50.6489311,41.0040855 C47.2747299,44.2479215 41.9097692,44.1423041 38.6658525,40.7681805 C35.4219358,37.3940569 35.5274247,32.0290937 38.9014707,28.7850962 C42.2755166,25.5410987 47.6404823,25.6464593 50.8845606,29.0204276 C52.4425213,30.6407677 53.2929583,32.8136629 53.2487687,35.0610595 C53.2045791,37.308456 52.2693831,39.4462411 50.6489311,41.0040855 L50.6489311,41.0040855 Z" id="Shape" fill="url(#linearGradient-10)" fill-rule="nonzero"></path>
            <path d="M38.4980523,32.5366271 C37.5448931,32.5366271 37.5433729,34.0180523 38.4980523,34.0180523 C39.4527316,34.0180523 39.4527316,32.5366271 38.4980523,32.5366271 Z" id="Path" fill="url(#linearGradient-11)" fill-rule="nonzero"></path>
            <path d="M45.1420428,27.7913539 C42.5767221,27.7335867 40.2424703,29.0204276 39.0012352,30.9632304 C38.5961045,31.5971496 39.7461283,32.1573397 40.1489786,31.5264608 C41.1766271,29.9180998 43.1293112,28.8965321 45.2416152,28.9497387 C47.4550119,29.0052257 49.4692637,30.2715439 50.535677,32.0288836 C50.9400475,32.6954869 52.00038,32.0896912 51.59981,31.4268884 C50.3030879,29.2986223 47.791734,27.8544418 45.1420428,27.7913539 Z" id="Path" fill="url(#linearGradient-12)" fill-rule="nonzero"></path>
            <path d="M54.2464608,26.2301188 C52.0339017,23.9288773 48.9863863,22.6177663 45.7941219,22.5937288 C42.6018574,22.5696913 39.5349436,23.8347611 37.287981,26.1024228 C32.8034204,30.6234679 32.7274109,37.9849881 37.1139192,42.6018052 C41.0930076,46.789572 47.5120364,47.497624 52.3082185,44.2778147 L60.8729691,53.1876485 C61.0938016,53.4172192 61.4589052,53.4243648 61.6885511,53.2036105 L63.8228979,51.1513539 C64.0524686,50.9305215 64.0596142,50.5654179 63.8388599,50.335772 L55.2733492,41.4266983 C58.6629332,36.7828021 58.2299878,30.375787 54.2464608,26.2301188 L54.2464608,26.2301188 Z M51.5785273,40.5480285 C48.2043261,43.7918645 42.8393654,43.6862471 39.5954487,40.3121235 C36.351532,36.9379999 36.4570209,31.5730367 39.8310669,28.3290392 C43.2051128,25.0850417 48.5700785,25.1904022 51.8141568,28.5643705 C53.3721175,30.1847107 54.2225545,32.3576059 54.1783649,34.6050025 C54.1341753,36.852399 53.1989793,38.9901841 51.5785273,40.5480285 Z" id="Shape" fill="#2170F2" fill-rule="nonzero"></path>
            <path d="M39.4276485,32.0858907 C38.4744893,32.0858907 38.4729691,33.5673159 39.4276485,33.5673159 C40.3823278,33.5673159 40.3823278,32.0858907 39.4276485,32.0858907 Z" id="Path" fill="#2170F2" fill-rule="nonzero"></path>
            <path d="M46.071639,27.3413777 C43.5063183,27.2836105 41.1720665,28.5704513 39.9308314,30.5132542 C39.5257007,31.1471734 40.6757245,31.7073634 41.0785748,31.0764846 C42.1062233,29.4681235 44.0589074,28.4465558 46.1712114,28.4997625 C48.3846081,28.5552494 50.3988599,29.8215677 51.4652732,31.5789074 C51.8696437,32.2455107 52.9299762,31.639715 52.5294062,30.9769121 C51.2304038,28.8425653 48.7220903,27.3983848 46.071639,27.3413777 Z" id="Path" fill="#2170F2" fill-rule="nonzero"></path>
            <rect id="Rectangle" fill="#47E6B1" fill-rule="nonzero" x="9.23135392" y="50.5394774" width="1" height="1.5087886"></rect>
            <polygon id="Rectangle" fill="#47E6B1" fill-rule="nonzero" transform="translate(9.364751, 51.293492) rotate(90.000000) translate(-9.364751, -51.293492) " points="9.23173397 50.5390974 9.49776722 50.5390974 9.49776722 52.047886 9.23173397 52.047886"></polygon>
            <path d="M43.4675534,0.680285036 C43.3154988,0.614111232 43.2373259,0.444355016 43.2858907,0.285795724 C43.2896096,0.273948476 43.291906,0.261700912 43.2927316,0.249311164 L43.2927316,0.249311164 C43.29768,0.176961703 43.2543574,0.110004813 43.1863342,0.0848696302 C43.118311,0.0597344473 43.0418596,0.082433756 42.9985748,0.140617577 L42.9985748,0.140617577 C42.9912614,0.15050555 42.9851384,0.161220737 42.9803325,0.172541568 C42.9141587,0.324596237 42.7444025,0.402769138 42.5858432,0.354204276 C42.573996,0.35048539 42.5617484,0.348188972 42.5493587,0.34736342 L42.5493587,0.34736342 C42.4764246,0.342097341 42.4088694,0.385923159 42.3839508,0.454670318 C42.3590322,0.523417477 42.382816,0.60035076 42.4421853,0.64304038 L42.4421853,0.64304038 C42.4520732,0.650353789 42.4627884,0.656476753 42.4741093,0.66128266 C42.6261639,0.727456464 42.7043368,0.89721268 42.655772,1.05577197 C42.6520531,1.06761922 42.6497567,1.07986678 42.6489311,1.09225653 L42.6489311,1.09225653 C42.6430914,1.16564288 42.6870411,1.23387429 42.7562736,1.25890452 C42.8255062,1.28393475 42.902928,1.25958381 42.9453682,1.19942993 L42.9453682,1.19942993 C42.9526816,1.18954196 42.9588045,1.17882677 42.9636105,1.16750594 C43.0297843,1.01545127 43.1995405,0.937278368 43.3580998,0.98584323 C43.369947,0.989562115 43.3821946,0.991858534 43.3945843,0.992684086 L43.3945843,0.992684086 C43.4669338,0.997632509 43.5338907,0.95430989 43.5590259,0.886286703 C43.584161,0.818263516 43.5614617,0.741812121 43.5032779,0.698527316 L43.5032779,0.698527316 C43.4922011,0.69094008 43.4801945,0.684809023 43.4675534,0.680285036 L43.4675534,0.680285036 Z" id="Path" fill="#4D8AF0" fill-rule="nonzero"></path>
            <path d="M10.4467458,11.8650831 C10.2946912,11.7989093 10.2165183,11.6291531 10.2650831,11.4705938 C10.268802,11.4587466 10.2710984,11.446499 10.271924,11.4341093 L10.271924,11.4341093 C10.2768724,11.3617598 10.2335498,11.2948029 10.1655266,11.2696677 C10.0975034,11.2445325 10.021052,11.2672319 9.97776722,11.3254157 L9.97776722,11.3254157 C9.97045381,11.3353036 9.96433085,11.3460188 9.95952494,11.3573397 C9.89335114,11.5093943 9.72359492,11.5875672 9.56503563,11.5390024 C9.55318838,11.5352835 9.54094082,11.5329871 9.52855107,11.5321615 L9.52855107,11.5321615 C9.45620161,11.5272131 9.38924472,11.5705357 9.36410954,11.6385589 C9.33897435,11.7065821 9.36167366,11.7830335 9.41985748,11.8263183 L9.41985748,11.8263183 C9.42974545,11.8336317 9.44046064,11.8397547 9.45178147,11.8445606 C9.60383614,11.9107344 9.68200904,12.0804906 9.63344418,12.2390499 C9.6297253,12.2508971 9.62742888,12.2631447 9.62660333,12.2755344 L9.62660333,12.2755344 C9.6216549,12.3478839 9.66497752,12.4148408 9.73300071,12.439976 C9.8010239,12.4651112 9.87747529,12.4424118 9.9207601,12.384228 L9.9207601,12.384228 C9.9280735,12.3743401 9.93419647,12.3636249 9.93900238,12.352304 C10.0051762,12.2002494 10.1749324,12.1220765 10.3334917,12.1706413 C10.3453389,12.1743602 10.3575865,12.1766566 10.3699762,12.1774822 L10.3699762,12.1774822 C10.4423257,12.1824306 10.5092826,12.139108 10.5344178,12.0710848 C10.559553,12.0030616 10.5368537,11.9266102 10.4786698,11.8833254 L10.4786698,11.8833254 C10.4687819,11.876012 10.4580667,11.869889 10.4467458,11.8650831 L10.4467458,11.8650831 Z" id="Path" fill="#FDD835" fill-rule="nonzero"></path>
            <path d="M57.4038955,58.0226128 C57.2518408,57.956439 57.1736679,57.7866828 57.2222328,57.6281235 C57.2259517,57.6162763 57.2282481,57.6040287 57.2290736,57.591639 L57.2290736,57.591639 C57.2340221,57.5192895 57.1906994,57.4523326 57.1226763,57.4271974 C57.0546531,57.4020622 56.9782017,57.4247615 56.9349169,57.4829454 L56.9349169,57.4829454 C56.9276035,57.4928333 56.9214805,57.5035485 56.9166746,57.5148694 C56.8505008,57.666924 56.6807446,57.7450969 56.5221853,57.6965321 C56.510338,57.6928132 56.4980905,57.6905168 56.4857007,57.6896912 L56.4857007,57.6896912 C56.4133513,57.6847428 56.3463944,57.7280654 56.3212592,57.7960886 C56.296124,57.8641118 56.3188233,57.9405632 56.3770071,57.983848 L56.3770071,57.983848 C56.3868951,57.9911614 56.3976103,57.9972844 56.4089311,58.0020903 C56.5609858,58.0682641 56.6391587,58.2380203 56.5905938,58.3965796 C56.5868749,58.4084268 56.5845785,58.4206744 56.583753,58.4330641 L56.583753,58.4330641 C56.5788045,58.5054136 56.6221272,58.5723705 56.6901504,58.5975057 C56.7581735,58.6226408 56.8346249,58.5999415 56.8779097,58.5417577 L56.8779097,58.5417577 C56.8852231,58.5318697 56.8913461,58.5211546 56.896152,58.5098337 C56.9623258,58.3577791 57.132082,58.2796062 57.2906413,58.328171 C57.3024886,58.3318899 57.3147361,58.3341863 57.3271259,58.3350119 L57.3271259,58.3350119 C57.3994754,58.3399603 57.4664322,58.2966377 57.4915674,58.2286145 C57.5167026,58.1605913 57.4940033,58.0841399 57.4358195,58.0408551 L57.4358195,58.0408551 C57.4259315,58.0335417 57.4152163,58.0274187 57.4038955,58.0226128 Z" id="Path" fill="#FDD835" fill-rule="nonzero"></path>
            <circle id="Oval" fill="#F55F44" fill-rule="nonzero" cx="24.4104513" cy="5.80180523" r="1"></circle>
            <circle id="Oval" fill="#F55F44" fill-rule="nonzero" cx="62.5793824" cy="12.4587173" r="1"></circle>
            <circle id="Oval" fill="#4D8AF0" fill-rule="nonzero" cx="59.5618052" cy="28.3477435" r="1"></circle>
            <circle id="Oval" fill="#47E6B1" fill-rule="nonzero" opacity="0.5" cx="0.532826603" cy="2.25064133" r="1"></circle>
        </g>
    </g>
</svg>